<svg viewBox="0 0 262 187" fill="white" xmlns="http://www.w3.org/2000/svg"><path d="M262 26L243.5 0H130H0.5L17 28.5C17 68.6733 18.0001 131.149 18.0001 187H262V26Z" fill="#F5F5F5"/><path d="M40.5137 23V8.78125H43.8047C44.3581 8.78776 44.8789 8.84635 45.3672 8.95703C45.862 9.0612 46.3177 9.21094 46.7344 9.40625C47.3138 9.67318 47.8249 10.0247 48.2676 10.4609C48.7168 10.8906 49.0749 11.3887 49.3418 11.9551C49.5827 12.4368 49.765 12.9642 49.8887 13.5371C50.0189 14.11 50.0872 14.722 50.0938 15.373V16.418C50.0938 17.043 50.0319 17.6354 49.9082 18.1953C49.791 18.7552 49.6185 19.2695 49.3906 19.7383C49.1562 20.2266 48.86 20.6693 48.502 21.0664C48.1439 21.4635 47.7435 21.8021 47.3008 22.082C46.832 22.375 46.3014 22.5996 45.709 22.7559C45.123 22.9121 44.4883 22.9935 43.8047 23H40.5137ZM42.3496 10.2656V21.5254H43.8047C44.3255 21.5189 44.7975 21.4538 45.2207 21.3301C45.6504 21.2064 46.0312 21.0306 46.3633 20.8027C46.7148 20.5684 47.0176 20.2819 47.2715 19.9434C47.5319 19.5983 47.737 19.2142 47.8867 18.791C48.0169 18.446 48.1146 18.0749 48.1797 17.6777C48.2448 17.2741 48.2806 16.8542 48.2871 16.418V15.3535C48.2806 14.9108 48.2415 14.4876 48.1699 14.084C48.1048 13.6738 48.0039 13.293 47.8672 12.9414C47.6914 12.4857 47.4538 12.0755 47.1543 11.7109C46.8613 11.3398 46.5 11.0404 46.0703 10.8125C45.7643 10.6432 45.4225 10.513 45.0449 10.4219C44.6673 10.3242 44.2539 10.2721 43.8047 10.2656H42.3496ZM59.6543 23C59.5827 22.8633 59.5241 22.694 59.4785 22.4922C59.4395 22.2839 59.4102 22.069 59.3906 21.8477C59.2083 22.0299 59.0033 22.2025 58.7754 22.3652C58.554 22.528 58.3099 22.6712 58.043 22.7949C57.7695 22.9186 57.4798 23.0163 57.1738 23.0879C56.8678 23.1595 56.5423 23.1953 56.1973 23.1953C55.6374 23.1953 55.1296 23.1139 54.6738 22.9512C54.2246 22.7884 53.8438 22.5671 53.5312 22.2871C53.2122 22.0137 52.9648 21.6882 52.7891 21.3105C52.6198 20.9264 52.5352 20.513 52.5352 20.0703C52.5352 19.4909 52.6491 18.9831 52.877 18.5469C53.1113 18.1107 53.4401 17.7461 53.8633 17.4531C54.2865 17.1667 54.7943 16.9518 55.3867 16.8086C55.9857 16.6654 56.653 16.5938 57.3887 16.5938H59.3613V15.7637C59.3613 15.4447 59.3027 15.1582 59.1855 14.9043C59.0684 14.6504 58.9023 14.4323 58.6875 14.25C58.4727 14.0742 58.209 13.9375 57.8965 13.8398C57.5905 13.7422 57.2454 13.6934 56.8613 13.6934C56.5033 13.6934 56.181 13.7389 55.8945 13.8301C55.6146 13.9212 55.377 14.0417 55.1816 14.1914C54.9863 14.3411 54.8333 14.5202 54.7227 14.7285C54.6185 14.9303 54.5664 15.1419 54.5664 15.3633H52.75C52.7565 14.9792 52.8542 14.6016 53.043 14.2305C53.2383 13.8594 53.5182 13.5241 53.8828 13.2246C54.2409 12.9316 54.6771 12.694 55.1914 12.5117C55.7122 12.3294 56.3014 12.2383 56.959 12.2383C57.5579 12.2383 58.1146 12.3132 58.6289 12.4629C59.1432 12.6061 59.5892 12.8242 59.9668 13.1172C60.3379 13.4167 60.6309 13.7878 60.8457 14.2305C61.0605 14.6732 61.168 15.1908 61.168 15.7832V20.6953C61.168 21.0469 61.2005 21.4212 61.2656 21.8184C61.3307 22.209 61.4219 22.5508 61.5391 22.8438V23H59.6543ZM56.4609 21.623C56.8125 21.623 57.1413 21.5775 57.4473 21.4863C57.7533 21.3952 58.0332 21.2747 58.2871 21.125C58.5345 20.9753 58.7493 20.806 58.9316 20.6172C59.1139 20.4219 59.2572 20.2201 59.3613 20.0117V17.873H57.6816C57.0566 17.873 56.5098 17.9284 56.041 18.0391C55.5788 18.1432 55.2109 18.306 54.9375 18.5273C54.7422 18.6836 54.5924 18.8691 54.4883 19.084C54.3906 19.2988 54.3418 19.543 54.3418 19.8164C54.3418 20.0768 54.3841 20.3177 54.4688 20.5391C54.5599 20.7604 54.6934 20.9492 54.8691 21.1055C55.0449 21.2682 55.2663 21.3952 55.5332 21.4863C55.8001 21.5775 56.1094 21.623 56.4609 21.623ZM69 9.875V12.4336H73.0234V13.8301H69V19.5723C69 19.9824 69.0521 20.321 69.1562 20.5879C69.2604 20.8548 69.4036 21.0664 69.5859 21.2227C69.7682 21.3854 69.9766 21.4993 70.2109 21.5645C70.4518 21.6296 70.7057 21.6621 70.9727 21.6621C71.168 21.6621 71.3698 21.6523 71.5781 21.6328C71.7865 21.6068 71.9915 21.5775 72.1934 21.5449C72.3887 21.5124 72.571 21.4798 72.7402 21.4473C72.916 21.4082 73.0592 21.3757 73.1699 21.3496L73.4238 22.6289C73.2741 22.7201 73.0918 22.8014 72.877 22.873C72.6621 22.9382 72.4277 22.9935 72.1738 23.0391C71.9199 23.0911 71.6497 23.1302 71.3633 23.1562C71.0833 23.1823 70.8034 23.1953 70.5234 23.1953C70.0547 23.1953 69.6152 23.1302 69.2051 23C68.8014 22.8633 68.4499 22.6484 68.1504 22.3555C67.8509 22.069 67.6133 21.6979 67.4375 21.2422C67.2682 20.7799 67.1836 20.2233 67.1836 19.5723V13.8301H64.4102V12.4336H67.1836V9.875H69ZM83.6777 23C83.6061 22.8633 83.5475 22.694 83.502 22.4922C83.4629 22.2839 83.4336 22.069 83.4141 21.8477C83.2318 22.0299 83.0267 22.2025 82.7988 22.3652C82.5775 22.528 82.3333 22.6712 82.0664 22.7949C81.793 22.9186 81.5033 23.0163 81.1973 23.0879C80.8913 23.1595 80.5658 23.1953 80.2207 23.1953C79.6608 23.1953 79.153 23.1139 78.6973 22.9512C78.248 22.7884 77.8672 22.5671 77.5547 22.2871C77.2357 22.0137 76.9883 21.6882 76.8125 21.3105C76.6432 20.9264 76.5586 20.513 76.5586 20.0703C76.5586 19.4909 76.6725 18.9831 76.9004 18.5469C77.1348 18.1107 77.4635 17.7461 77.8867 17.4531C78.3099 17.1667 78.8177 16.9518 79.4102 16.8086C80.0091 16.6654 80.6764 16.5938 81.4121 16.5938H83.3848V15.7637C83.3848 15.4447 83.3262 15.1582 83.209 14.9043C83.0918 14.6504 82.9258 14.4323 82.7109 14.25C82.4961 14.0742 82.2324 13.9375 81.9199 13.8398C81.6139 13.7422 81.2689 13.6934 80.8848 13.6934C80.5267 13.6934 80.2044 13.7389 79.918 13.8301C79.638 13.9212 79.4004 14.0417 79.2051 14.1914C79.0098 14.3411 78.8568 14.5202 78.7461 14.7285C78.6419 14.9303 78.5898 15.1419 78.5898 15.3633H76.7734C76.7799 14.9792 76.8776 14.6016 77.0664 14.2305C77.2617 13.8594 77.5417 13.5241 77.9062 13.2246C78.2643 12.9316 78.7005 12.694 79.2148 12.5117C79.7357 12.3294 80.3249 12.2383 80.9824 12.2383C81.5814 12.2383 82.138 12.3132 82.6523 12.4629C83.1667 12.6061 83.6126 12.8242 83.9902 13.1172C84.3613 13.4167 84.6543 13.7878 84.8691 14.2305C85.084 14.6732 85.1914 15.1908 85.1914 15.7832V20.6953C85.1914 21.0469 85.224 21.4212 85.2891 21.8184C85.3542 22.209 85.4453 22.5508 85.5625 22.8438V23H83.6777ZM80.4844 21.623C80.8359 21.623 81.1647 21.5775 81.4707 21.4863C81.7767 21.3952 82.0566 21.2747 82.3105 21.125C82.5579 20.9753 82.7728 20.806 82.9551 20.6172C83.1374 20.4219 83.2806 20.2201 83.3848 20.0117V17.873H81.7051C81.0801 17.873 80.5332 17.9284 80.0645 18.0391C79.6022 18.1432 79.2344 18.306 78.9609 18.5273C78.7656 18.6836 78.6159 18.8691 78.5117 19.084C78.4141 19.2988 78.3652 19.543 78.3652 19.8164C78.3652 20.0768 78.4076 20.3177 78.4922 20.5391C78.5833 20.7604 78.7168 20.9492 78.8926 21.1055C79.0684 21.2682 79.2897 21.3952 79.5566 21.4863C79.8236 21.5775 80.1328 21.623 80.4844 21.623Z" fill="black"/><rect x="23" y="28" width="233" height="156" fill="#1A1D20"/><rect x="207" y="11" width="8" height="8" fill="#1A1D20"/><rect x="219" y="11" width="8" height="8" fill="#1A1D20"/><rect x="231" y="11" width="8" height="8" fill="#1A1D20"/><rect x="27" y="170" width="225" height="1" fill="#F8F8F8"/><path d="M139.71 57.7207H138.691V45.0469H139.71V57.7207Z" fill="white"/><path d="M139.71 122.721H138.691V110.047H139.71V122.721Z" fill="white"/><path d="M139.71 86.7207H138.691V74.0469H139.71V86.7207Z" fill="white"/><rect x="28" y="175" width="4" height="4" fill="#F8F8F8"/><rect x="37" y="175" width="4" height="4" fill="#F8F8F8"/><rect x="46" y="175" width="4" height="4" fill="#F8F8F8"/><rect x="55" y="175" width="4" height="4" fill="#F8F8F8"/><rect x="64" y="175" width="4" height="4" fill="#F8F8F8"/></svg>