<svg width="130" height="181" viewBox="0 0 130 181" fill="none" xmlns="http://www.w3.org/2000/svg">
<path d="M64.89 177.001C64.89 178.748 63.4731 180.165 61.7253 180.165C59.9774 180.165 58.5605 178.748 58.5605 177.001C58.5605 175.253 59.9774 173.836 61.7253 173.836C63.4731 173.836 64.89 175.253 64.89 177.001Z" fill="white"/>
<path d="M64.89 177.001C64.89 178.748 63.4731 180.165 61.7253 180.165C59.9774 180.165 58.5605 178.748 58.5605 177.001C58.5605 175.253 59.9774 173.836 61.7253 173.836C63.4731 173.836 64.89 175.253 64.89 177.001Z" fill="white"/>
<path d="M64.89 177.001C64.89 178.748 63.4731 180.165 61.7253 180.165C59.9774 180.165 58.5605 178.748 58.5605 177.001C58.5605 175.253 59.9774 173.836 61.7253 173.836C63.4731 173.836 64.89 175.253 64.89 177.001Z" fill="white"/>
<path d="M64.89 177.001C64.89 178.748 63.4731 180.165 61.7253 180.165C59.9774 180.165 58.5605 178.748 58.5605 177.001C58.5605 175.253 59.9774 173.836 61.7253 173.836C63.4731 173.836 64.89 175.253 64.89 177.001Z" fill="white"/>
<path d="M56.6644 168.477C56.6644 170.225 55.2475 171.642 53.4997 171.642C51.7519 171.642 50.335 170.225 50.335 168.477C50.335 166.729 51.7519 165.312 53.4997 165.312C55.2475 165.312 56.6644 166.729 56.6644 168.477Z" fill="white"/>
<path d="M56.6644 168.477C56.6644 170.225 55.2475 171.642 53.4997 171.642C51.7519 171.642 50.335 170.225 50.335 168.477C50.335 166.729 51.7519 165.312 53.4997 165.312C55.2475 165.312 56.6644 166.729 56.6644 168.477Z" fill="white"/>
<path d="M56.6644 168.477C56.6644 170.225 55.2475 171.642 53.4997 171.642C51.7519 171.642 50.335 170.225 50.335 168.477C50.335 166.729 51.7519 165.312 53.4997 165.312C55.2475 165.312 56.6644 166.729 56.6644 168.477Z" fill="white"/>
<path d="M56.6644 168.477C56.6644 170.225 55.2475 171.642 53.4997 171.642C51.7519 171.642 50.335 170.225 50.335 168.477C50.335 166.729 51.7519 165.312 53.4997 165.312C55.2475 165.312 56.6644 166.729 56.6644 168.477Z" fill="white"/>
<path d="M39.6644 157.927C39.6644 159.675 38.2475 161.092 36.4997 161.092C34.7519 161.092 33.335 159.675 33.335 157.927C33.335 156.18 34.7519 154.763 36.4997 154.763C38.2475 154.763 39.6644 156.18 39.6644 157.927Z" fill="white"/>
<path d="M39.6644 157.927C39.6644 159.675 38.2475 161.092 36.4997 161.092C34.7519 161.092 33.335 159.675 33.335 157.927C33.335 156.18 34.7519 154.763 36.4997 154.763C38.2475 154.763 39.6644 156.18 39.6644 157.927Z" fill="white"/>
<path d="M39.6644 157.927C39.6644 159.675 38.2475 161.092 36.4997 161.092C34.7519 161.092 33.335 159.675 33.335 157.927C33.335 156.18 34.7519 154.763 36.4997 154.763C38.2475 154.763 39.6644 156.18 39.6644 157.927Z" fill="white"/>
<path d="M39.6644 157.927C39.6644 159.675 38.2475 161.092 36.4997 161.092C34.7519 161.092 33.335 159.675 33.335 157.927C33.335 156.18 34.7519 154.763 36.4997 154.763C38.2475 154.763 39.6644 156.18 39.6644 157.927Z" fill="white"/>
<path d="M27.1644 143.665C27.1644 145.413 25.7475 146.829 23.9997 146.829C22.2519 146.829 20.835 145.413 20.835 143.665C20.835 141.917 22.2519 140.5 23.9997 140.5C25.7475 140.5 27.1644 141.917 27.1644 143.665Z" fill="white"/>
<path d="M27.1644 143.665C27.1644 145.413 25.7475 146.829 23.9997 146.829C22.2519 146.829 20.835 145.413 20.835 143.665C20.835 141.917 22.2519 140.5 23.9997 140.5C25.7475 140.5 27.1644 141.917 27.1644 143.665Z" fill="white"/>
<path d="M27.1644 143.665C27.1644 145.413 25.7475 146.829 23.9997 146.829C22.2519 146.829 20.835 145.413 20.835 143.665C20.835 141.917 22.2519 140.5 23.9997 140.5C25.7475 140.5 27.1644 141.917 27.1644 143.665Z" fill="white"/>
<path d="M27.1644 143.665C27.1644 145.413 25.7475 146.829 23.9997 146.829C22.2519 146.829 20.835 145.413 20.835 143.665C20.835 141.917 22.2519 140.5 23.9997 140.5C25.7475 140.5 27.1644 141.917 27.1644 143.665Z" fill="white"/>
<path d="M68.8968 145.665C68.8968 147.413 67.4799 148.829 65.7321 148.829C63.9843 148.829 62.5674 147.413 62.5674 145.665C62.5674 143.917 63.9843 142.5 65.7321 142.5C67.4799 142.5 68.8968 143.917 68.8968 145.665Z" fill="white"/>
<path d="M68.8968 145.665C68.8968 147.413 67.4799 148.829 65.7321 148.829C63.9843 148.829 62.5674 147.413 62.5674 145.665C62.5674 143.917 63.9843 142.5 65.7321 142.5C67.4799 142.5 68.8968 143.917 68.8968 145.665Z" fill="white"/>
<path d="M68.8968 145.665C68.8968 147.413 67.4799 148.829 65.7321 148.829C63.9843 148.829 62.5674 147.413 62.5674 145.665C62.5674 143.917 63.9843 142.5 65.7321 142.5C67.4799 142.5 68.8968 143.917 68.8968 145.665Z" fill="white"/>
<path d="M68.8968 145.665C68.8968 147.413 67.4799 148.829 65.7321 148.829C63.9843 148.829 62.5674 147.413 62.5674 145.665C62.5674 143.917 63.9843 142.5 65.7321 142.5C67.4799 142.5 68.8968 143.917 68.8968 145.665Z" fill="white"/>
<path d="M43.6644 126.648C43.6644 128.396 42.2475 129.813 40.4997 129.813C38.7519 129.813 37.335 128.396 37.335 126.648C37.335 124.9 38.7519 123.483 40.4997 123.483C42.2475 123.483 43.6644 124.9 43.6644 126.648Z" fill="white"/>
<path d="M43.6644 126.648C43.6644 128.396 42.2475 129.813 40.4997 129.813C38.7519 129.813 37.335 128.396 37.335 126.648C37.335 124.9 38.7519 123.483 40.4997 123.483C42.2475 123.483 43.6644 124.9 43.6644 126.648Z" fill="white"/>
<path d="M43.6644 126.648C43.6644 128.396 42.2475 129.813 40.4997 129.813C38.7519 129.813 37.335 128.396 37.335 126.648C37.335 124.9 38.7519 123.483 40.4997 123.483C42.2475 123.483 43.6644 124.9 43.6644 126.648Z" fill="white"/>
<path d="M43.6644 126.648C43.6644 128.396 42.2475 129.813 40.4997 129.813C38.7519 129.813 37.335 128.396 37.335 126.648C37.335 124.9 38.7519 123.483 40.4997 123.483C42.2475 123.483 43.6644 124.9 43.6644 126.648Z" fill="white"/>
<path d="M75.2279 130.5C75.2279 132.248 73.811 133.664 72.0632 133.664C70.3153 133.664 68.8984 132.248 68.8984 130.5C68.8984 128.752 70.3153 127.335 72.0632 127.335C73.811 127.335 75.2279 128.752 75.2279 130.5Z" fill="white"/>
<path d="M75.2279 130.5C75.2279 132.248 73.811 133.664 72.0632 133.664C70.3153 133.664 68.8984 132.248 68.8984 130.5C68.8984 128.752 70.3153 127.335 72.0632 127.335C73.811 127.335 75.2279 128.752 75.2279 130.5Z" fill="white"/>
<path d="M75.2279 130.5C75.2279 132.248 73.811 133.664 72.0632 133.664C70.3153 133.664 68.8984 132.248 68.8984 130.5C68.8984 128.752 70.3153 127.335 72.0632 127.335C73.811 127.335 75.2279 128.752 75.2279 130.5Z" fill="white"/>
<path d="M75.2279 130.5C75.2279 132.248 73.811 133.664 72.0632 133.664C70.3153 133.664 68.8984 132.248 68.8984 130.5C68.8984 128.752 70.3153 127.335 72.0632 127.335C73.811 127.335 75.2279 128.752 75.2279 130.5Z" fill="white"/>
<path d="M85.0003 163.203C85.0003 164.951 83.5834 166.368 81.8356 166.368C80.0878 166.368 78.6709 164.951 78.6709 163.203C78.6709 161.455 80.0878 160.038 81.8356 160.038C83.5834 160.038 85.0003 161.455 85.0003 163.203Z" fill="white"/>
<path d="M85.0003 163.203C85.0003 164.951 83.5834 166.368 81.8356 166.368C80.0878 166.368 78.6709 164.951 78.6709 163.203C78.6709 161.455 80.0878 160.038 81.8356 160.038C83.5834 160.038 85.0003 161.455 85.0003 163.203Z" fill="white"/>
<path d="M85.0003 163.203C85.0003 164.951 83.5834 166.368 81.8356 166.368C80.0878 166.368 78.6709 164.951 78.6709 163.203C78.6709 161.455 80.0878 160.038 81.8356 160.038C83.5834 160.038 85.0003 161.455 85.0003 163.203Z" fill="white"/>
<path d="M85.0003 163.203C85.0003 164.951 83.5834 166.368 81.8356 166.368C80.0878 166.368 78.6709 164.951 78.6709 163.203C78.6709 161.455 80.0878 160.038 81.8356 160.038C83.5834 160.038 85.0003 161.455 85.0003 163.203Z" fill="white"/>
<path d="M66.3285 161C66.3285 162.748 64.9116 164.164 63.1637 164.164C61.4159 164.164 59.999 162.748 59.999 161C59.999 159.252 61.4159 157.835 63.1637 157.835C64.9116 157.835 66.3285 159.252 66.3285 161Z" fill="white"/>
<path d="M66.3285 161C66.3285 162.748 64.9116 164.164 63.1637 164.164C61.4159 164.164 59.999 162.748 59.999 161C59.999 159.252 61.4159 157.835 63.1637 157.835C64.9116 157.835 66.3285 159.252 66.3285 161Z" fill="white"/>
<path d="M66.3285 161C66.3285 162.748 64.9116 164.164 63.1637 164.164C61.4159 164.164 59.999 162.748 59.999 161C59.999 159.252 61.4159 157.835 63.1637 157.835C64.9116 157.835 66.3285 159.252 66.3285 161Z" fill="white"/>
<path d="M66.3285 161C66.3285 162.748 64.9116 164.164 63.1637 164.164C61.4159 164.164 59.999 162.748 59.999 161C59.999 159.252 61.4159 157.835 63.1637 157.835C64.9116 157.835 66.3285 159.252 66.3285 161Z" fill="white"/>
<path d="M76.3294 152.57C76.3294 154.318 74.9125 155.735 73.1647 155.735C71.4168 155.735 69.9999 154.318 69.9999 152.57C69.9999 150.822 71.4168 149.405 73.1647 149.405C74.9125 149.405 76.3294 150.822 76.3294 152.57Z" fill="white"/>
<path d="M76.3294 152.57C76.3294 154.318 74.9125 155.735 73.1647 155.735C71.4168 155.735 69.9999 154.318 69.9999 152.57C69.9999 150.822 71.4168 149.405 73.1647 149.405C74.9125 149.405 76.3294 150.822 76.3294 152.57Z" fill="white"/>
<path d="M76.3294 152.57C76.3294 154.318 74.9125 155.735 73.1647 155.735C71.4168 155.735 69.9999 154.318 69.9999 152.57C69.9999 150.822 71.4168 149.405 73.1647 149.405C74.9125 149.405 76.3294 150.822 76.3294 152.57Z" fill="white"/>
<path d="M76.3294 152.57C76.3294 154.318 74.9125 155.735 73.1647 155.735C71.4168 155.735 69.9999 154.318 69.9999 152.57C69.9999 150.822 71.4168 149.405 73.1647 149.405C74.9125 149.405 76.3294 150.822 76.3294 152.57Z" fill="white"/>
<path d="M105.293 147.5C105.293 149.248 103.876 150.665 102.128 150.665C100.38 150.665 98.9632 149.248 98.9632 147.5C98.9632 145.752 100.38 144.335 102.128 144.335C103.876 144.335 105.293 145.752 105.293 147.5Z" fill="white"/>
<path d="M105.293 147.5C105.293 149.248 103.876 150.665 102.128 150.665C100.38 150.665 98.9632 149.248 98.9632 147.5C98.9632 145.752 100.38 144.335 102.128 144.335C103.876 144.335 105.293 145.752 105.293 147.5Z" fill="white"/>
<path d="M105.293 147.5C105.293 149.248 103.876 150.665 102.128 150.665C100.38 150.665 98.9632 149.248 98.9632 147.5C98.9632 145.752 100.38 144.335 102.128 144.335C103.876 144.335 105.293 145.752 105.293 147.5Z" fill="white"/>
<path d="M105.293 147.5C105.293 149.248 103.876 150.665 102.128 150.665C100.38 150.665 98.9632 149.248 98.9632 147.5C98.9632 145.752 100.38 144.335 102.128 144.335C103.876 144.335 105.293 145.752 105.293 147.5Z" fill="white"/>
<path d="M85.2495 146.24C85.2495 147.988 83.8326 149.404 82.0847 149.404C80.3369 149.404 78.92 147.988 78.92 146.24C78.92 144.492 80.3369 143.075 82.0847 143.075C83.8326 143.075 85.2495 144.492 85.2495 146.24Z" fill="white"/>
<path d="M85.2495 146.24C85.2495 147.988 83.8326 149.404 82.0847 149.404C80.3369 149.404 78.92 147.988 78.92 146.24C78.92 144.492 80.3369 143.075 82.0847 143.075C83.8326 143.075 85.2495 144.492 85.2495 146.24Z" fill="white"/>
<path d="M85.2495 146.24C85.2495 147.988 83.8326 149.404 82.0847 149.404C80.3369 149.404 78.92 147.988 78.92 146.24C78.92 144.492 80.3369 143.075 82.0847 143.075C83.8326 143.075 85.2495 144.492 85.2495 146.24Z" fill="white"/>
<path d="M85.2495 146.24C85.2495 147.988 83.8326 149.404 82.0847 149.404C80.3369 149.404 78.92 147.988 78.92 146.24C78.92 144.492 80.3369 143.075 82.0847 143.075C83.8326 143.075 85.2495 144.492 85.2495 146.24Z" fill="white"/>
<path d="M96.1647 138.665C96.1647 140.413 94.7478 141.829 92.9999 141.829C91.2521 141.829 89.8352 140.413 89.8352 138.665C89.8352 136.917 91.2521 135.5 92.9999 135.5C94.7478 135.5 96.1647 136.917 96.1647 138.665Z" fill="white"/>
<path d="M96.1647 138.665C96.1647 140.413 94.7478 141.829 92.9999 141.829C91.2521 141.829 89.8352 140.413 89.8352 138.665C89.8352 136.917 91.2521 135.5 92.9999 135.5C94.7478 135.5 96.1647 136.917 96.1647 138.665Z" fill="white"/>
<path d="M96.1647 138.665C96.1647 140.413 94.7478 141.829 92.9999 141.829C91.2521 141.829 89.8352 140.413 89.8352 138.665C89.8352 136.917 91.2521 135.5 92.9999 135.5C94.7478 135.5 96.1647 136.917 96.1647 138.665Z" fill="white"/>
<path d="M96.1647 138.665C96.1647 140.413 94.7478 141.829 92.9999 141.829C91.2521 141.829 89.8352 140.413 89.8352 138.665C89.8352 136.917 91.2521 135.5 92.9999 135.5C94.7478 135.5 96.1647 136.917 96.1647 138.665Z" fill="white"/>
<path d="M91.5789 133.416C91.5789 135.164 90.162 136.581 88.4142 136.581C86.6664 136.581 85.2495 135.164 85.2495 133.416C85.2495 131.668 86.6664 130.251 88.4142 130.251C90.162 130.251 91.5789 131.668 91.5789 133.416Z" fill="white"/>
<path d="M91.5789 133.416C91.5789 135.164 90.162 136.581 88.4142 136.581C86.6664 136.581 85.2495 135.164 85.2495 133.416C85.2495 131.668 86.6664 130.251 88.4142 130.251C90.162 130.251 91.5789 131.668 91.5789 133.416Z" fill="white"/>
<path d="M91.5789 133.416C91.5789 135.164 90.162 136.581 88.4142 136.581C86.6664 136.581 85.2495 135.164 85.2495 133.416C85.2495 131.668 86.6664 130.251 88.4142 130.251C90.162 130.251 91.5789 131.668 91.5789 133.416Z" fill="white"/>
<path d="M91.5789 133.416C91.5789 135.164 90.162 136.581 88.4142 136.581C86.6664 136.581 85.2495 135.164 85.2495 133.416C85.2495 131.668 86.6664 130.251 88.4142 130.251C90.162 130.251 91.5789 131.668 91.5789 133.416Z" fill="white"/>
<path d="M122.116 120.23C122.116 121.978 120.699 123.394 118.951 123.394C117.203 123.394 115.786 121.978 115.786 120.23C115.786 118.482 117.203 117.065 118.951 117.065C120.699 117.065 122.116 118.482 122.116 120.23Z" fill="white"/>
<path d="M122.116 120.23C122.116 121.978 120.699 123.394 118.951 123.394C117.203 123.394 115.786 121.978 115.786 120.23C115.786 118.482 117.203 117.065 118.951 117.065C120.699 117.065 122.116 118.482 122.116 120.23Z" fill="white"/>
<path d="M122.116 120.23C122.116 121.978 120.699 123.394 118.951 123.394C117.203 123.394 115.786 121.978 115.786 120.23C115.786 118.482 117.203 117.065 118.951 117.065C120.699 117.065 122.116 118.482 122.116 120.23Z" fill="white"/>
<path d="M122.116 120.23C122.116 121.978 120.699 123.394 118.951 123.394C117.203 123.394 115.786 121.978 115.786 120.23C115.786 118.482 117.203 117.065 118.951 117.065C120.699 117.065 122.116 118.482 122.116 120.23Z" fill="white"/>
<path d="M129.555 107.292C129.555 109.04 128.139 110.457 126.391 110.457C124.643 110.457 123.226 109.04 123.226 107.292C123.226 105.544 124.643 104.128 126.391 104.128C128.139 104.128 129.555 105.544 129.555 107.292Z" fill="white"/>
<path d="M129.555 107.292C129.555 109.04 128.139 110.457 126.391 110.457C124.643 110.457 123.226 109.04 123.226 107.292C123.226 105.544 124.643 104.128 126.391 104.128C128.139 104.128 129.555 105.544 129.555 107.292Z" fill="white"/>
<path d="M129.555 107.292C129.555 109.04 128.139 110.457 126.391 110.457C124.643 110.457 123.226 109.04 123.226 107.292C123.226 105.544 124.643 104.128 126.391 104.128C128.139 104.128 129.555 105.544 129.555 107.292Z" fill="white"/>
<path d="M129.555 107.292C129.555 109.04 128.139 110.457 126.391 110.457C124.643 110.457 123.226 109.04 123.226 107.292C123.226 105.544 124.643 104.128 126.391 104.128C128.139 104.128 129.555 105.544 129.555 107.292Z" fill="white"/>
<path d="M111.622 102.545C111.622 104.293 110.205 105.71 108.457 105.71C106.71 105.71 105.293 104.293 105.293 102.545C105.293 100.797 106.71 99.3805 108.457 99.3805C110.205 99.3805 111.622 100.797 111.622 102.545Z" fill="white"/>
<path d="M111.622 102.545C111.622 104.293 110.205 105.71 108.457 105.71C106.71 105.71 105.293 104.293 105.293 102.545C105.293 100.797 106.71 99.3805 108.457 99.3805C110.205 99.3805 111.622 100.797 111.622 102.545Z" fill="white"/>
<path d="M111.622 102.545C111.622 104.293 110.205 105.71 108.457 105.71C106.71 105.71 105.293 104.293 105.293 102.545C105.293 100.797 106.71 99.3805 108.457 99.3805C110.205 99.3805 111.622 100.797 111.622 102.545Z" fill="white"/>
<path d="M111.622 102.545C111.622 104.293 110.205 105.71 108.457 105.71C106.71 105.71 105.293 104.293 105.293 102.545C105.293 100.797 106.71 99.3805 108.457 99.3805C110.205 99.3805 111.622 100.797 111.622 102.545Z" fill="white"/>
<path d="M122.437 94.953C122.437 96.7008 121.02 98.1177 119.272 98.1177C117.524 98.1177 116.107 96.7008 116.107 94.953C116.107 93.2052 117.524 91.7883 119.272 91.7883C121.02 91.7883 122.437 93.2052 122.437 94.953Z" fill="white"/>
<path d="M122.437 94.953C122.437 96.7008 121.02 98.1177 119.272 98.1177C117.524 98.1177 116.107 96.7008 116.107 94.953C116.107 93.2052 117.524 91.7883 119.272 91.7883C121.02 91.7883 122.437 93.2052 122.437 94.953Z" fill="white"/>
<path d="M122.437 94.953C122.437 96.7008 121.02 98.1177 119.272 98.1177C117.524 98.1177 116.107 96.7008 116.107 94.953C116.107 93.2052 117.524 91.7883 119.272 91.7883C121.02 91.7883 122.437 93.2052 122.437 94.953Z" fill="white"/>
<path d="M122.437 94.953C122.437 96.7008 121.02 98.1177 119.272 98.1177C117.524 98.1177 116.107 96.7008 116.107 94.953C116.107 93.2052 117.524 91.7883 119.272 91.7883C121.02 91.7883 122.437 93.2052 122.437 94.953Z" fill="white"/>
<path d="M114.787 79.969C114.787 81.7168 113.37 83.1337 111.622 83.1337C109.874 83.1337 108.457 81.7168 108.457 79.969C108.457 78.2212 109.874 76.8043 111.622 76.8043C113.37 76.8043 114.787 78.2212 114.787 79.969Z" fill="white"/>
<path d="M114.787 79.969C114.787 81.7168 113.37 83.1337 111.622 83.1337C109.874 83.1337 108.457 81.7168 108.457 79.969C108.457 78.2212 109.874 76.8043 111.622 76.8043C113.37 76.8043 114.787 78.2212 114.787 79.969Z" fill="white"/>
<path d="M114.787 79.969C114.787 81.7168 113.37 83.1337 111.622 83.1337C109.874 83.1337 108.457 81.7168 108.457 79.969C108.457 78.2212 109.874 76.8043 111.622 76.8043C113.37 76.8043 114.787 78.2212 114.787 79.969Z" fill="white"/>
<path d="M114.787 79.969C114.787 81.7168 113.37 83.1337 111.622 83.1337C109.874 83.1337 108.457 81.7168 108.457 79.969C108.457 78.2212 109.874 76.8043 111.622 76.8043C113.37 76.8043 114.787 78.2212 114.787 79.969Z" fill="white"/>
<path d="M98.5977 83.9801C98.5977 85.728 97.1808 87.1448 95.433 87.1448C93.6851 87.1448 92.2682 85.728 92.2682 83.9801C92.2682 82.2323 93.6851 80.8154 95.433 80.8154C97.1808 80.8154 98.5977 82.2323 98.5977 83.9801Z" fill="white"/>
<path d="M98.5977 83.9801C98.5977 85.728 97.1808 87.1448 95.433 87.1448C93.6851 87.1448 92.2682 85.728 92.2682 83.9801C92.2682 82.2323 93.6851 80.8154 95.433 80.8154C97.1808 80.8154 98.5977 82.2323 98.5977 83.9801Z" fill="white"/>
<path d="M98.5977 83.9801C98.5977 85.728 97.1808 87.1448 95.433 87.1448C93.6851 87.1448 92.2682 85.728 92.2682 83.9801C92.2682 82.2323 93.6851 80.8154 95.433 80.8154C97.1808 80.8154 98.5977 82.2323 98.5977 83.9801Z" fill="white"/>
<path d="M98.5977 83.9801C98.5977 85.728 97.1808 87.1448 95.433 87.1448C93.6851 87.1448 92.2682 85.728 92.2682 83.9801C92.2682 82.2323 93.6851 80.8154 95.433 80.8154C97.1808 80.8154 98.5977 82.2323 98.5977 83.9801Z" fill="white"/>
<path d="M92.6338 71.4257C92.6338 73.1735 91.2169 74.5904 89.4691 74.5904C87.7213 74.5904 86.3044 73.1735 86.3044 71.4257C86.3044 69.6779 87.7213 68.261 89.4691 68.261C91.2169 68.261 92.6338 69.6779 92.6338 71.4257Z" fill="white"/>
<path d="M92.6338 71.4257C92.6338 73.1735 91.2169 74.5904 89.4691 74.5904C87.7213 74.5904 86.3044 73.1735 86.3044 71.4257C86.3044 69.6779 87.7213 68.261 89.4691 68.261C91.2169 68.261 92.6338 69.6779 92.6338 71.4257Z" fill="white"/>
<path d="M92.6338 71.4257C92.6338 73.1735 91.2169 74.5904 89.4691 74.5904C87.7213 74.5904 86.3044 73.1735 86.3044 71.4257C86.3044 69.6779 87.7213 68.261 89.4691 68.261C91.2169 68.261 92.6338 69.6779 92.6338 71.4257Z" fill="white"/>
<path d="M92.6338 71.4257C92.6338 73.1735 91.2169 74.5904 89.4691 74.5904C87.7213 74.5904 86.3044 73.1735 86.3044 71.4257C86.3044 69.6779 87.7213 68.261 89.4691 68.261C91.2169 68.261 92.6338 69.6779 92.6338 71.4257Z" fill="white"/>
<path d="M105.293 58.766C105.293 60.5139 103.876 61.9307 102.128 61.9307C100.38 61.9307 98.9632 60.5139 98.9632 58.766C98.9632 57.0182 100.38 55.6013 102.128 55.6013C103.876 55.6013 105.293 57.0182 105.293 58.766Z" fill="white"/>
<path d="M105.293 58.766C105.293 60.5139 103.876 61.9307 102.128 61.9307C100.38 61.9307 98.9632 60.5139 98.9632 58.766C98.9632 57.0182 100.38 55.6013 102.128 55.6013C103.876 55.6013 105.293 57.0182 105.293 58.766Z" fill="white"/>
<path d="M105.293 58.766C105.293 60.5139 103.876 61.9307 102.128 61.9307C100.38 61.9307 98.9632 60.5139 98.9632 58.766C98.9632 57.0182 100.38 55.6013 102.128 55.6013C103.876 55.6013 105.293 57.0182 105.293 58.766Z" fill="white"/>
<path d="M105.293 58.766C105.293 60.5139 103.876 61.9307 102.128 61.9307C100.38 61.9307 98.9632 60.5139 98.9632 58.766C98.9632 57.0182 100.38 55.6013 102.128 55.6013C103.876 55.6013 105.293 57.0182 105.293 58.766Z" fill="white"/>
<path d="M126.391 53.4925C126.391 55.2404 124.974 56.6572 123.226 56.6572C121.478 56.6572 120.061 55.2404 120.061 53.4925C120.061 51.7447 121.478 50.3278 123.226 50.3278C124.974 50.3278 126.391 51.7447 126.391 53.4925Z" fill="white"/>
<path d="M126.391 53.4925C126.391 55.2404 124.974 56.6572 123.226 56.6572C121.478 56.6572 120.061 55.2404 120.061 53.4925C120.061 51.7447 121.478 50.3278 123.226 50.3278C124.974 50.3278 126.391 51.7447 126.391 53.4925Z" fill="white"/>
<path d="M126.391 53.4925C126.391 55.2404 124.974 56.6572 123.226 56.6572C121.478 56.6572 120.061 55.2404 120.061 53.4925C120.061 51.7447 121.478 50.3278 123.226 50.3278C124.974 50.3278 126.391 51.7447 126.391 53.4925Z" fill="white"/>
<path d="M126.391 53.4925C126.391 55.2404 124.974 56.6572 123.226 56.6572C121.478 56.6572 120.061 55.2404 120.061 53.4925C120.061 51.7447 121.478 50.3278 123.226 50.3278C124.974 50.3278 126.391 51.7447 126.391 53.4925Z" fill="white"/>
<path d="M110.04 38.8279C110.04 40.5757 108.623 41.9926 106.875 41.9926C105.127 41.9926 103.71 40.5757 103.71 38.8279C103.71 37.0801 105.127 35.6632 106.875 35.6632C108.623 35.6632 110.04 37.0801 110.04 38.8279Z" fill="white"/>
<path d="M110.04 38.8279C110.04 40.5757 108.623 41.9926 106.875 41.9926C105.127 41.9926 103.71 40.5757 103.71 38.8279C103.71 37.0801 105.127 35.6632 106.875 35.6632C108.623 35.6632 110.04 37.0801 110.04 38.8279Z" fill="white"/>
<path d="M110.04 38.8279C110.04 40.5757 108.623 41.9926 106.875 41.9926C105.127 41.9926 103.71 40.5757 103.71 38.8279C103.71 37.0801 105.127 35.6632 106.875 35.6632C108.623 35.6632 110.04 37.0801 110.04 38.8279Z" fill="white"/>
<path d="M110.04 38.8279C110.04 40.5757 108.623 41.9926 106.875 41.9926C105.127 41.9926 103.71 40.5757 103.71 38.8279C103.71 37.0801 105.127 35.6632 106.875 35.6632C108.623 35.6632 110.04 37.0801 110.04 38.8279Z" fill="white"/>
<path d="M103.183 33.9763C103.183 35.7241 101.766 37.141 100.018 37.141C98.2703 37.141 96.8534 35.7241 96.8534 33.9763C96.8534 32.2284 98.2703 30.8116 100.018 30.8116C101.766 30.8116 103.183 32.2284 103.183 33.9763Z" fill="white"/>
<path d="M103.183 33.9763C103.183 35.7241 101.766 37.141 100.018 37.141C98.2703 37.141 96.8534 35.7241 96.8534 33.9763C96.8534 32.2284 98.2703 30.8116 100.018 30.8116C101.766 30.8116 103.183 32.2284 103.183 33.9763Z" fill="white"/>
<path d="M103.183 33.9763C103.183 35.7241 101.766 37.141 100.018 37.141C98.2703 37.141 96.8534 35.7241 96.8534 33.9763C96.8534 32.2284 98.2703 30.8116 100.018 30.8116C101.766 30.8116 103.183 32.2284 103.183 33.9763Z" fill="white"/>
<path d="M103.183 33.9763C103.183 35.7241 101.766 37.141 100.018 37.141C98.2703 37.141 96.8534 35.7241 96.8534 33.9763C96.8534 32.2284 98.2703 30.8116 100.018 30.8116C101.766 30.8116 103.183 32.2284 103.183 33.9763Z" fill="white"/>
<path d="M124.629 33.9763C124.629 35.7241 123.212 37.141 121.464 37.141C119.716 37.141 118.299 35.7241 118.299 33.9763C118.299 32.2284 119.716 30.8116 121.464 30.8116C123.212 30.8116 124.629 32.2284 124.629 33.9763Z" fill="white"/>
<path d="M124.629 33.9763C124.629 35.7241 123.212 37.141 121.464 37.141C119.716 37.141 118.299 35.7241 118.299 33.9763C118.299 32.2284 119.716 30.8116 121.464 30.8116C123.212 30.8116 124.629 32.2284 124.629 33.9763Z" fill="white"/>
<path d="M124.629 33.9763C124.629 35.7241 123.212 37.141 121.464 37.141C119.716 37.141 118.299 35.7241 118.299 33.9763C118.299 32.2284 119.716 30.8116 121.464 30.8116C123.212 30.8116 124.629 32.2284 124.629 33.9763Z" fill="white"/>
<path d="M124.629 33.9763C124.629 35.7241 123.212 37.141 121.464 37.141C119.716 37.141 118.299 35.7241 118.299 33.9763C118.299 32.2284 119.716 30.8116 121.464 30.8116C123.212 30.8116 124.629 32.2284 124.629 33.9763Z" fill="white"/>
<path d="M111.622 7.07617C111.622 8.824 110.205 10.2409 108.457 10.2409C106.71 10.2409 105.293 8.824 105.293 7.07617C105.293 5.32835 106.71 3.91146 108.457 3.91146C110.205 3.91146 111.622 5.32835 111.622 7.07617Z" fill="white"/>
<path d="M111.622 7.07617C111.622 8.824 110.205 10.2409 108.457 10.2409C106.71 10.2409 105.293 8.824 105.293 7.07617C105.293 5.32835 106.71 3.91146 108.457 3.91146C110.205 3.91146 111.622 5.32835 111.622 7.07617Z" fill="white"/>
<path d="M111.622 7.07617C111.622 8.824 110.205 10.2409 108.457 10.2409C106.71 10.2409 105.293 8.824 105.293 7.07617C105.293 5.32835 106.71 3.91146 108.457 3.91146C110.205 3.91146 111.622 5.32835 111.622 7.07617Z" fill="white"/>
<path d="M111.622 7.07617C111.622 8.824 110.205 10.2409 108.457 10.2409C106.71 10.2409 105.293 8.824 105.293 7.07617C105.293 5.32835 106.71 3.91146 108.457 3.91146C110.205 3.91146 111.622 5.32835 111.622 7.07617Z" fill="white"/>
<path d="M97.3809 14.1138C97.3809 15.8616 95.964 17.2785 94.2162 17.2785C92.4683 17.2785 91.0514 15.8616 91.0514 14.1138C91.0514 12.366 92.4683 10.9491 94.2162 10.9491C95.964 10.9491 97.3809 12.366 97.3809 14.1138Z" fill="white"/>
<path d="M97.3809 14.1138C97.3809 15.8616 95.964 17.2785 94.2162 17.2785C92.4683 17.2785 91.0514 15.8616 91.0514 14.1138C91.0514 12.366 92.4683 10.9491 94.2162 10.9491C95.964 10.9491 97.3809 12.366 97.3809 14.1138Z" fill="white"/>
<path d="M97.3809 14.1138C97.3809 15.8616 95.964 17.2785 94.2162 17.2785C92.4683 17.2785 91.0514 15.8616 91.0514 14.1138C91.0514 12.366 92.4683 10.9491 94.2162 10.9491C95.964 10.9491 97.3809 12.366 97.3809 14.1138Z" fill="white"/>
<path d="M97.3809 14.1138C97.3809 15.8616 95.964 17.2785 94.2162 17.2785C92.4683 17.2785 91.0514 15.8616 91.0514 14.1138C91.0514 12.366 92.4683 10.9491 94.2162 10.9491C95.964 10.9491 97.3809 12.366 97.3809 14.1138Z" fill="white"/>
<path d="M94.7436 3.66277C94.7436 5.41059 93.3267 6.82748 91.5789 6.82748C89.8311 6.82748 88.4142 5.41059 88.4142 3.66277C88.4142 1.91494 89.8311 0.498047 91.5789 0.498047C93.3267 0.498047 94.7436 1.91494 94.7436 3.66277Z" fill="white"/>
<path d="M94.7436 3.66277C94.7436 5.41059 93.3267 6.82748 91.5789 6.82748C89.8311 6.82748 88.4142 5.41059 88.4142 3.66277C88.4142 1.91494 89.8311 0.498047 91.5789 0.498047C93.3267 0.498047 94.7436 1.91494 94.7436 3.66277Z" fill="white"/>
<path d="M94.7436 3.66277C94.7436 5.41059 93.3267 6.82748 91.5789 6.82748C89.8311 6.82748 88.4142 5.41059 88.4142 3.66277C88.4142 1.91494 89.8311 0.498047 91.5789 0.498047C93.3267 0.498047 94.7436 1.91494 94.7436 3.66277Z" fill="white"/>
<path d="M94.7436 3.66277C94.7436 5.41059 93.3267 6.82748 91.5789 6.82748C89.8311 6.82748 88.4142 5.41059 88.4142 3.66277C88.4142 1.91494 89.8311 0.498047 91.5789 0.498047C93.3267 0.498047 94.7436 1.91494 94.7436 3.66277Z" fill="white"/>
<path d="M39.1647 11.8233C39.1647 13.5711 37.7478 14.988 36 14.988C34.2522 14.988 32.8353 13.5711 32.8353 11.8233C32.8353 10.0754 34.2522 8.65854 36 8.65854C37.7478 8.65854 39.1647 10.0754 39.1647 11.8233Z" fill="white"/>
<path d="M39.1647 11.8233C39.1647 13.5711 37.7478 14.988 36 14.988C34.2522 14.988 32.8353 13.5711 32.8353 11.8233C32.8353 10.0754 34.2522 8.65854 36 8.65854C37.7478 8.65854 39.1647 10.0754 39.1647 11.8233Z" fill="white"/>
<path d="M39.1647 11.8233C39.1647 13.5711 37.7478 14.988 36 14.988C34.2522 14.988 32.8353 13.5711 32.8353 11.8233C32.8353 10.0754 34.2522 8.65854 36 8.65854C37.7478 8.65854 39.1647 10.0754 39.1647 11.8233Z" fill="white"/>
<path d="M39.1647 11.8233C39.1647 13.5711 37.7478 14.988 36 14.988C34.2522 14.988 32.8353 13.5711 32.8353 11.8233C32.8353 10.0754 34.2522 8.65854 36 8.65854C37.7478 8.65854 39.1647 10.0754 39.1647 11.8233Z" fill="white"/>
<path d="M82.0848 14.988C82.0848 16.7358 80.6679 18.1527 78.92 18.1527C77.1722 18.1527 75.7553 16.7358 75.7553 14.988C75.7553 13.2401 77.1722 11.8233 78.92 11.8233C80.6679 11.8233 82.0848 13.2401 82.0848 14.988Z" fill="white"/>
<path d="M82.0848 14.988C82.0848 16.7358 80.6679 18.1527 78.92 18.1527C77.1722 18.1527 75.7553 16.7358 75.7553 14.988C75.7553 13.2401 77.1722 11.8233 78.92 11.8233C80.6679 11.8233 82.0848 13.2401 82.0848 14.988Z" fill="white"/>
<path d="M82.0848 14.988C82.0848 16.7358 80.6679 18.1527 78.92 18.1527C77.1722 18.1527 75.7553 16.7358 75.7553 14.988C75.7553 13.2401 77.1722 11.8233 78.92 11.8233C80.6679 11.8233 82.0848 13.2401 82.0848 14.988Z" fill="white"/>
<path d="M82.0848 14.988C82.0848 16.7358 80.6679 18.1527 78.92 18.1527C77.1722 18.1527 75.7553 16.7358 75.7553 14.988C75.7553 13.2401 77.1722 11.8233 78.92 11.8233C80.6679 11.8233 82.0848 13.2401 82.0848 14.988Z" fill="white"/>
<path d="M93 24C93 25.7478 91.5831 27.1647 89.8353 27.1647C88.0875 27.1647 86.6706 25.7478 86.6706 24C86.6706 22.2522 88.0875 20.8353 89.8353 20.8353C91.5831 20.8353 93 22.2522 93 24Z" fill="white"/>
<path d="M93 24C93 25.7478 91.5831 27.1647 89.8353 27.1647C88.0875 27.1647 86.6706 25.7478 86.6706 24C86.6706 22.2522 88.0875 20.8353 89.8353 20.8353C91.5831 20.8353 93 22.2522 93 24Z" fill="white"/>
<path d="M93 24C93 25.7478 91.5831 27.1647 89.8353 27.1647C88.0875 27.1647 86.6706 25.7478 86.6706 24C86.6706 22.2522 88.0875 20.8353 89.8353 20.8353C91.5831 20.8353 93 22.2522 93 24Z" fill="white"/>
<path d="M93 24C93 25.7478 91.5831 27.1647 89.8353 27.1647C88.0875 27.1647 86.6706 25.7478 86.6706 24C86.6706 22.2522 88.0875 20.8353 89.8353 20.8353C91.5831 20.8353 93 22.2522 93 24Z" fill="white"/>
<path d="M48.1647 11.8233C48.1647 13.5711 46.7478 14.988 45 14.988C43.2522 14.988 41.8353 13.5711 41.8353 11.8233C41.8353 10.0754 43.2522 8.65854 45 8.65854C46.7478 8.65854 48.1647 10.0754 48.1647 11.8233Z" fill="white"/>
<path d="M48.1647 11.8233C48.1647 13.5711 46.7478 14.988 45 14.988C43.2522 14.988 41.8353 13.5711 41.8353 11.8233C41.8353 10.0754 43.2522 8.65854 45 8.65854C46.7478 8.65854 48.1647 10.0754 48.1647 11.8233Z" fill="white"/>
<path d="M48.1647 11.8233C48.1647 13.5711 46.7478 14.988 45 14.988C43.2522 14.988 41.8353 13.5711 41.8353 11.8233C41.8353 10.0754 43.2522 8.65854 45 8.65854C46.7478 8.65854 48.1647 10.0754 48.1647 11.8233Z" fill="white"/>
<path d="M48.1647 11.8233C48.1647 13.5711 46.7478 14.988 45 14.988C43.2522 14.988 41.8353 13.5711 41.8353 11.8233C41.8353 10.0754 43.2522 8.65854 45 8.65854C46.7478 8.65854 48.1647 10.0754 48.1647 11.8233Z" fill="white"/>
<path d="M55.1647 39.2513C55.1647 40.9991 53.7478 42.416 52 42.416C50.2522 42.416 48.8353 40.9991 48.8353 39.2513C48.8353 37.5035 50.2522 36.0866 52 36.0866C53.7478 36.0866 55.1647 37.5035 55.1647 39.2513Z" fill="white"/>
<path d="M55.1647 39.2513C55.1647 40.9991 53.7478 42.416 52 42.416C50.2522 42.416 48.8353 40.9991 48.8353 39.2513C48.8353 37.5035 50.2522 36.0866 52 36.0866C53.7478 36.0866 55.1647 37.5035 55.1647 39.2513Z" fill="white"/>
<path d="M55.1647 39.2513C55.1647 40.9991 53.7478 42.416 52 42.416C50.2522 42.416 48.8353 40.9991 48.8353 39.2513C48.8353 37.5035 50.2522 36.0866 52 36.0866C53.7478 36.0866 55.1647 37.5035 55.1647 39.2513Z" fill="white"/>
<path d="M55.1647 39.2513C55.1647 40.9991 53.7478 42.416 52 42.416C50.2522 42.416 48.8353 40.9991 48.8353 39.2513C48.8353 37.5035 50.2522 36.0866 52 36.0866C53.7478 36.0866 55.1647 37.5035 55.1647 39.2513Z" fill="white"/>
<path d="M70.5511 51.9102C70.5511 53.658 69.1342 55.0749 67.3863 55.0749C65.6385 55.0749 64.2216 53.658 64.2216 51.9102C64.2216 50.1623 65.6385 48.7455 67.3863 48.7455C69.1342 48.7455 70.5511 50.1623 70.5511 51.9102Z" fill="white"/>
<path d="M70.5511 51.9102C70.5511 53.658 69.1342 55.0749 67.3863 55.0749C65.6385 55.0749 64.2216 53.658 64.2216 51.9102C64.2216 50.1623 65.6385 48.7455 67.3863 48.7455C69.1342 48.7455 70.5511 50.1623 70.5511 51.9102Z" fill="white"/>
<path d="M70.5511 51.9102C70.5511 53.658 69.1342 55.0749 67.3863 55.0749C65.6385 55.0749 64.2216 53.658 64.2216 51.9102C64.2216 50.1623 65.6385 48.7455 67.3863 48.7455C69.1342 48.7455 70.5511 50.1623 70.5511 51.9102Z" fill="white"/>
<path d="M70.5511 51.9102C70.5511 53.658 69.1342 55.0749 67.3863 55.0749C65.6385 55.0749 64.2216 53.658 64.2216 51.9102C64.2216 50.1623 65.6385 48.7455 67.3863 48.7455C69.1342 48.7455 70.5511 50.1623 70.5511 51.9102Z" fill="white"/>
<path d="M91.0514 45.5807C91.0514 47.3286 89.6345 48.7455 87.8867 48.7455C86.1389 48.7455 84.722 47.3286 84.722 45.5807C84.722 43.8329 86.1389 42.416 87.8867 42.416C89.6345 42.416 91.0514 43.8329 91.0514 45.5807Z" fill="white"/>
<path d="M91.0514 45.5807C91.0514 47.3286 89.6345 48.7455 87.8867 48.7455C86.1389 48.7455 84.722 47.3286 84.722 45.5807C84.722 43.8329 86.1389 42.416 87.8867 42.416C89.6345 42.416 91.0514 43.8329 91.0514 45.5807Z" fill="white"/>
<path d="M91.0514 45.5807C91.0514 47.3286 89.6345 48.7455 87.8867 48.7455C86.1389 48.7455 84.722 47.3286 84.722 45.5807C84.722 43.8329 86.1389 42.416 87.8867 42.416C89.6345 42.416 91.0514 43.8329 91.0514 45.5807Z" fill="white"/>
<path d="M91.0514 45.5807C91.0514 47.3286 89.6345 48.7455 87.8867 48.7455C86.1389 48.7455 84.722 47.3286 84.722 45.5807C84.722 43.8329 86.1389 42.416 87.8867 42.416C89.6345 42.416 91.0514 43.8329 91.0514 45.5807Z" fill="white"/>
<path d="M71.8507 87.1448C71.8507 88.8927 70.4338 90.3096 68.686 90.3096C66.9382 90.3096 65.5213 88.8927 65.5213 87.1448C65.5213 85.397 66.9382 83.9801 68.686 83.9801C70.4338 83.9801 71.8507 85.397 71.8507 87.1448Z" fill="white"/>
<path d="M71.8507 87.1448C71.8507 88.8927 70.4338 90.3096 68.686 90.3096C66.9382 90.3096 65.5213 88.8927 65.5213 87.1448C65.5213 85.397 66.9382 83.9801 68.686 83.9801C70.4338 83.9801 71.8507 85.397 71.8507 87.1448Z" fill="white"/>
<path d="M71.8507 87.1448C71.8507 88.8927 70.4338 90.3096 68.686 90.3096C66.9382 90.3096 65.5213 88.8927 65.5213 87.1448C65.5213 85.397 66.9382 83.9801 68.686 83.9801C70.4338 83.9801 71.8507 85.397 71.8507 87.1448Z" fill="white"/>
<path d="M71.8507 87.1448C71.8507 88.8927 70.4338 90.3096 68.686 90.3096C66.9382 90.3096 65.5213 88.8927 65.5213 87.1448C65.5213 85.397 66.9382 83.9801 68.686 83.9801C70.4338 83.9801 71.8507 85.397 71.8507 87.1448Z" fill="white"/>
<path d="M82.0848 68.4283C82.0848 70.1762 80.6679 71.5931 78.92 71.5931C77.1722 71.5931 75.7553 70.1762 75.7553 68.4283C75.7553 66.6805 77.1722 65.2636 78.92 65.2636C80.6679 65.2636 82.0848 66.6805 82.0848 68.4283Z" fill="white"/>
<path d="M82.0848 68.4283C82.0848 70.1762 80.6679 71.5931 78.92 71.5931C77.1722 71.5931 75.7553 70.1762 75.7553 68.4283C75.7553 66.6805 77.1722 65.2636 78.92 65.2636C80.6679 65.2636 82.0848 66.6805 82.0848 68.4283Z" fill="white"/>
<path d="M82.0848 68.4283C82.0848 70.1762 80.6679 71.5931 78.92 71.5931C77.1722 71.5931 75.7553 70.1762 75.7553 68.4283C75.7553 66.6805 77.1722 65.2636 78.92 65.2636C80.6679 65.2636 82.0848 66.6805 82.0848 68.4283Z" fill="white"/>
<path d="M82.0848 68.4283C82.0848 70.1762 80.6679 71.5931 78.92 71.5931C77.1722 71.5931 75.7553 70.1762 75.7553 68.4283C75.7553 66.6805 77.1722 65.2636 78.92 65.2636C80.6679 65.2636 82.0848 66.6805 82.0848 68.4283Z" fill="white"/>
<path d="M53.8737 59.822C53.8737 61.5698 52.4568 62.9867 50.709 62.9867C48.9611 62.9867 47.5442 61.5698 47.5442 59.822C47.5442 58.0741 48.9611 56.6572 50.709 56.6572C52.4568 56.6572 53.8737 58.0741 53.8737 59.822Z" fill="white"/>
<path d="M53.8737 59.822C53.8737 61.5698 52.4568 62.9867 50.709 62.9867C48.9611 62.9867 47.5442 61.5698 47.5442 59.822C47.5442 58.0741 48.9611 56.6572 50.709 56.6572C52.4568 56.6572 53.8737 58.0741 53.8737 59.822Z" fill="white"/>
<path d="M53.8737 59.822C53.8737 61.5698 52.4568 62.9867 50.709 62.9867C48.9611 62.9867 47.5442 61.5698 47.5442 59.822C47.5442 58.0741 48.9611 56.6572 50.709 56.6572C52.4568 56.6572 53.8737 58.0741 53.8737 59.822Z" fill="white"/>
<path d="M53.8737 59.822C53.8737 61.5698 52.4568 62.9867 50.709 62.9867C48.9611 62.9867 47.5442 61.5698 47.5442 59.822C47.5442 58.0741 48.9611 56.6572 50.709 56.6572C52.4568 56.6572 53.8737 58.0741 53.8737 59.822Z" fill="white"/>
<path d="M39.1647 39.8353C39.1647 41.5831 37.7478 43 36 43C34.2522 43 32.8353 41.5831 32.8353 39.8353C32.8353 38.0875 34.2522 36.6706 36 36.6706C37.7478 36.6706 39.1647 38.0875 39.1647 39.8353Z" fill="white"/>
<path d="M39.1647 39.8353C39.1647 41.5831 37.7478 43 36 43C34.2522 43 32.8353 41.5831 32.8353 39.8353C32.8353 38.0875 34.2522 36.6706 36 36.6706C37.7478 36.6706 39.1647 38.0875 39.1647 39.8353Z" fill="white"/>
<path d="M39.1647 39.8353C39.1647 41.5831 37.7478 43 36 43C34.2522 43 32.8353 41.5831 32.8353 39.8353C32.8353 38.0875 34.2522 36.6706 36 36.6706C37.7478 36.6706 39.1647 38.0875 39.1647 39.8353Z" fill="white"/>
<path d="M39.1647 39.8353C39.1647 41.5831 37.7478 43 36 43C34.2522 43 32.8353 41.5831 32.8353 39.8353C32.8353 38.0875 34.2522 36.6706 36 36.6706C37.7478 36.6706 39.1647 38.0875 39.1647 39.8353Z" fill="white"/>
<path d="M27.6647 25.2845C27.6647 27.0323 26.2478 28.4492 24.5 28.4492C22.7522 28.4492 21.3353 27.0323 21.3353 25.2845C21.3353 23.5366 22.7522 22.1198 24.5 22.1198C26.2478 22.1198 27.6647 23.5366 27.6647 25.2845Z" fill="white"/>
<path d="M27.6647 25.2845C27.6647 27.0323 26.2478 28.4492 24.5 28.4492C22.7522 28.4492 21.3353 27.0323 21.3353 25.2845C21.3353 23.5366 22.7522 22.1198 24.5 22.1198C26.2478 22.1198 27.6647 23.5366 27.6647 25.2845Z" fill="white"/>
<path d="M27.6647 25.2845C27.6647 27.0323 26.2478 28.4492 24.5 28.4492C22.7522 28.4492 21.3353 27.0323 21.3353 25.2845C21.3353 23.5366 22.7522 22.1198 24.5 22.1198C26.2478 22.1198 27.6647 23.5366 27.6647 25.2845Z" fill="white"/>
<path d="M27.6647 25.2845C27.6647 27.0323 26.2478 28.4492 24.5 28.4492C22.7522 28.4492 21.3353 27.0323 21.3353 25.2845C21.3353 23.5366 22.7522 22.1198 24.5 22.1198C26.2478 22.1198 27.6647 23.5366 27.6647 25.2845Z" fill="white"/>
<path d="M9.82337 41.5407C9.82337 43.2885 8.40648 44.7054 6.65866 44.7054C4.91083 44.7054 3.49394 43.2885 3.49394 41.5407C3.49394 39.7928 4.91083 38.376 6.65866 38.376C8.40648 38.376 9.82337 39.7928 9.82337 41.5407Z" fill="white"/>
<path d="M9.82337 41.5407C9.82337 43.2885 8.40648 44.7054 6.65866 44.7054C4.91083 44.7054 3.49394 43.2885 3.49394 41.5407C3.49394 39.7928 4.91083 38.376 6.65866 38.376C8.40648 38.376 9.82337 39.7928 9.82337 41.5407Z" fill="white"/>
<path d="M9.82337 41.5407C9.82337 43.2885 8.40648 44.7054 6.65866 44.7054C4.91083 44.7054 3.49394 43.2885 3.49394 41.5407C3.49394 39.7928 4.91083 38.376 6.65866 38.376C8.40648 38.376 9.82337 39.7928 9.82337 41.5407Z" fill="white"/>
<path d="M9.82337 41.5407C9.82337 43.2885 8.40648 44.7054 6.65866 44.7054C4.91083 44.7054 3.49394 43.2885 3.49394 41.5407C3.49394 39.7928 4.91083 38.376 6.65866 38.376C8.40648 38.376 9.82337 39.7928 9.82337 41.5407Z" fill="white"/>
<path d="M8.32944 60.5C8.32944 62.2478 6.91254 63.6647 5.16472 63.6647C3.41689 63.6647 2 62.2478 2 60.5C2 58.7522 3.41689 57.3353 5.16472 57.3353C6.91254 57.3353 8.32944 58.7522 8.32944 60.5Z" fill="white"/>
<path d="M8.32944 60.5C8.32944 62.2478 6.91254 63.6647 5.16472 63.6647C3.41689 63.6647 2 62.2478 2 60.5C2 58.7522 3.41689 57.3353 5.16472 57.3353C6.91254 57.3353 8.32944 58.7522 8.32944 60.5Z" fill="white"/>
<path d="M8.32944 60.5C8.32944 62.2478 6.91254 63.6647 5.16472 63.6647C3.41689 63.6647 2 62.2478 2 60.5C2 58.7522 3.41689 57.3353 5.16472 57.3353C6.91254 57.3353 8.32944 58.7522 8.32944 60.5Z" fill="white"/>
<path d="M8.32944 60.5C8.32944 62.2478 6.91254 63.6647 5.16472 63.6647C3.41689 63.6647 2 62.2478 2 60.5C2 58.7522 3.41689 57.3353 5.16472 57.3353C6.91254 57.3353 8.32944 58.7522 8.32944 60.5Z" fill="white"/>
<path d="M18.3294 69.749C18.3294 71.4968 16.9125 72.9137 15.1647 72.9137C13.4168 72.9137 11.9999 71.4968 11.9999 69.749C11.9999 68.0011 13.4168 66.5842 15.1647 66.5842C16.9125 66.5842 18.3294 68.0011 18.3294 69.749Z" fill="white"/>
<path d="M18.3294 69.749C18.3294 71.4968 16.9125 72.9137 15.1647 72.9137C13.4168 72.9137 11.9999 71.4968 11.9999 69.749C11.9999 68.0011 13.4168 66.5842 15.1647 66.5842C16.9125 66.5842 18.3294 68.0011 18.3294 69.749Z" fill="white"/>
<path d="M18.3294 69.749C18.3294 71.4968 16.9125 72.9137 15.1647 72.9137C13.4168 72.9137 11.9999 71.4968 11.9999 69.749C11.9999 68.0011 13.4168 66.5842 15.1647 66.5842C16.9125 66.5842 18.3294 68.0011 18.3294 69.749Z" fill="white"/>
<path d="M18.3294 69.749C18.3294 71.4968 16.9125 72.9137 15.1647 72.9137C13.4168 72.9137 11.9999 71.4968 11.9999 69.749C11.9999 68.0011 13.4168 66.5842 15.1647 66.5842C16.9125 66.5842 18.3294 68.0011 18.3294 69.749Z" fill="white"/>
<path d="M43.8294 56.377C43.8294 58.1248 42.4125 59.5417 40.6647 59.5417C38.9168 59.5417 37.5 58.1248 37.5 56.377C37.5 54.6292 38.9168 53.2123 40.6647 53.2123C42.4125 53.2123 43.8294 54.6292 43.8294 56.377Z" fill="white"/>
<path d="M43.8294 56.377C43.8294 58.1248 42.4125 59.5417 40.6647 59.5417C38.9168 59.5417 37.5 58.1248 37.5 56.377C37.5 54.6292 38.9168 53.2123 40.6647 53.2123C42.4125 53.2123 43.8294 54.6292 43.8294 56.377Z" fill="white"/>
<path d="M43.8294 56.377C43.8294 58.1248 42.4125 59.5417 40.6647 59.5417C38.9168 59.5417 37.5 58.1248 37.5 56.377C37.5 54.6292 38.9168 53.2123 40.6647 53.2123C42.4125 53.2123 43.8294 54.6292 43.8294 56.377Z" fill="white"/>
<path d="M43.8294 56.377C43.8294 58.1248 42.4125 59.5417 40.6647 59.5417C38.9168 59.5417 37.5 58.1248 37.5 56.377C37.5 54.6292 38.9168 53.2123 40.6647 53.2123C42.4125 53.2123 43.8294 54.6292 43.8294 56.377Z" fill="white"/>
<path d="M34.9833 91.7883C34.9833 93.5361 33.5664 94.953 31.8186 94.953C30.0708 94.953 28.6539 93.5361 28.6539 91.7883C28.6539 90.0405 30.0708 88.6236 31.8186 88.6236C33.5664 88.6236 34.9833 90.0405 34.9833 91.7883Z" fill="white"/>
<path d="M34.9833 91.7883C34.9833 93.5361 33.5664 94.953 31.8186 94.953C30.0708 94.953 28.6539 93.5361 28.6539 91.7883C28.6539 90.0405 30.0708 88.6236 31.8186 88.6236C33.5664 88.6236 34.9833 90.0405 34.9833 91.7883Z" fill="white"/>
<path d="M34.9833 91.7883C34.9833 93.5361 33.5664 94.953 31.8186 94.953C30.0708 94.953 28.6539 93.5361 28.6539 91.7883C28.6539 90.0405 30.0708 88.6236 31.8186 88.6236C33.5664 88.6236 34.9833 90.0405 34.9833 91.7883Z" fill="white"/>
<path d="M34.9833 91.7883C34.9833 93.5361 33.5664 94.953 31.8186 94.953C30.0708 94.953 28.6539 93.5361 28.6539 91.7883C28.6539 90.0405 30.0708 88.6236 31.8186 88.6236C33.5664 88.6236 34.9833 90.0405 34.9833 91.7883Z" fill="white"/>
<path d="M56.5 89.6375C56.5 91.3853 55.0831 92.8022 53.3352 92.8022C51.5874 92.8022 50.1705 91.3853 50.1705 89.6375C50.1705 87.8897 51.5874 86.4728 53.3352 86.4728C55.0831 86.4728 56.5 87.8897 56.5 89.6375Z" fill="white"/>
<path d="M56.5 89.6375C56.5 91.3853 55.0831 92.8022 53.3352 92.8022C51.5874 92.8022 50.1705 91.3853 50.1705 89.6375C50.1705 87.8897 51.5874 86.4728 53.3352 86.4728C55.0831 86.4728 56.5 87.8897 56.5 89.6375Z" fill="white"/>
<path d="M56.5 89.6375C56.5 91.3853 55.0831 92.8022 53.3352 92.8022C51.5874 92.8022 50.1705 91.3853 50.1705 89.6375C50.1705 87.8897 51.5874 86.4728 53.3352 86.4728C55.0831 86.4728 56.5 87.8897 56.5 89.6375Z" fill="white"/>
<path d="M56.5 89.6375C56.5 91.3853 55.0831 92.8022 53.3352 92.8022C51.5874 92.8022 50.1705 91.3853 50.1705 89.6375C50.1705 87.8897 51.5874 86.4728 53.3352 86.4728C55.0831 86.4728 56.5 87.8897 56.5 89.6375Z" fill="white"/>
<path d="M85.7769 112.567C85.7769 114.314 84.36 115.731 82.6122 115.731C80.8644 115.731 79.4475 114.314 79.4475 112.567C79.4475 110.819 80.8644 109.402 82.6122 109.402C84.36 109.402 85.7769 110.819 85.7769 112.567Z" fill="white"/>
<path d="M85.7769 112.567C85.7769 114.314 84.36 115.731 82.6122 115.731C80.8644 115.731 79.4475 114.314 79.4475 112.567C79.4475 110.819 80.8644 109.402 82.6122 109.402C84.36 109.402 85.7769 110.819 85.7769 112.567Z" fill="white"/>
<path d="M85.7769 112.567C85.7769 114.314 84.36 115.731 82.6122 115.731C80.8644 115.731 79.4475 114.314 79.4475 112.567C79.4475 110.819 80.8644 109.402 82.6122 109.402C84.36 109.402 85.7769 110.819 85.7769 112.567Z" fill="white"/>
<path d="M85.7769 112.567C85.7769 114.314 84.36 115.731 82.6122 115.731C80.8644 115.731 79.4475 114.314 79.4475 112.567C79.4475 110.819 80.8644 109.402 82.6122 109.402C84.36 109.402 85.7769 110.819 85.7769 112.567Z" fill="white"/>
<path d="M95.433 115.731C95.433 117.479 94.0161 118.896 92.2682 118.896C90.5204 118.896 89.1035 117.479 89.1035 115.731C89.1035 113.983 90.5204 112.567 92.2682 112.567C94.0161 112.567 95.433 113.983 95.433 115.731Z" fill="white"/>
<path d="M95.433 115.731C95.433 117.479 94.0161 118.896 92.2682 118.896C90.5204 118.896 89.1035 117.479 89.1035 115.731C89.1035 113.983 90.5204 112.567 92.2682 112.567C94.0161 112.567 95.433 113.983 95.433 115.731Z" fill="white"/>
<path d="M95.433 115.731C95.433 117.479 94.0161 118.896 92.2682 118.896C90.5204 118.896 89.1035 117.479 89.1035 115.731C89.1035 113.983 90.5204 112.567 92.2682 112.567C94.0161 112.567 95.433 113.983 95.433 115.731Z" fill="white"/>
<path d="M95.433 115.731C95.433 117.479 94.0161 118.896 92.2682 118.896C90.5204 118.896 89.1035 117.479 89.1035 115.731C89.1035 113.983 90.5204 112.567 92.2682 112.567C94.0161 112.567 95.433 113.983 95.433 115.731Z" fill="white"/>
<path d="M82.6122 126.281C82.6122 128.028 81.1953 129.445 79.4475 129.445C77.6997 129.445 76.2828 128.028 76.2828 126.281C76.2828 124.533 77.6997 123.116 79.4475 123.116C81.1953 123.116 82.6122 124.533 82.6122 126.281Z" fill="white"/>
<path d="M82.6122 126.281C82.6122 128.028 81.1953 129.445 79.4475 129.445C77.6997 129.445 76.2828 128.028 76.2828 126.281C76.2828 124.533 77.6997 123.116 79.4475 123.116C81.1953 123.116 82.6122 124.533 82.6122 126.281Z" fill="white"/>
<path d="M82.6122 126.281C82.6122 128.028 81.1953 129.445 79.4475 129.445C77.6997 129.445 76.2828 128.028 76.2828 126.281C76.2828 124.533 77.6997 123.116 79.4475 123.116C81.1953 123.116 82.6122 124.533 82.6122 126.281Z" fill="white"/>
<path d="M82.6122 126.281C82.6122 128.028 81.1953 129.445 79.4475 129.445C77.6997 129.445 76.2828 128.028 76.2828 126.281C76.2828 124.533 77.6997 123.116 79.4475 123.116C81.1953 123.116 82.6122 124.533 82.6122 126.281Z" fill="white"/>
<path d="M73.1647 117.665C73.1647 119.413 71.7478 120.829 69.9999 120.829C68.2521 120.829 66.8352 119.413 66.8352 117.665C66.8352 115.917 68.2521 114.5 69.9999 114.5C71.7478 114.5 73.1647 115.917 73.1647 117.665Z" fill="white"/>
<path d="M73.1647 117.665C73.1647 119.413 71.7478 120.829 69.9999 120.829C68.2521 120.829 66.8352 119.413 66.8352 117.665C66.8352 115.917 68.2521 114.5 69.9999 114.5C71.7478 114.5 73.1647 115.917 73.1647 117.665Z" fill="white"/>
<path d="M73.1647 117.665C73.1647 119.413 71.7478 120.829 69.9999 120.829C68.2521 120.829 66.8352 119.413 66.8352 117.665C66.8352 115.917 68.2521 114.5 69.9999 114.5C71.7478 114.5 73.1647 115.917 73.1647 117.665Z" fill="white"/>
<path d="M73.1647 117.665C73.1647 119.413 71.7478 120.829 69.9999 120.829C68.2521 120.829 66.8352 119.413 66.8352 117.665C66.8352 115.917 68.2521 114.5 69.9999 114.5C71.7478 114.5 73.1647 115.917 73.1647 117.665Z" fill="white"/>
<path d="M56.5 122.5C56.5 124.248 55.0831 125.665 53.3352 125.665C51.5874 125.665 50.1705 124.248 50.1705 122.5C50.1705 120.752 51.5874 119.335 53.3352 119.335C55.0831 119.335 56.5 120.752 56.5 122.5Z" fill="white"/>
<path d="M56.5 122.5C56.5 124.248 55.0831 125.665 53.3352 125.665C51.5874 125.665 50.1705 124.248 50.1705 122.5C50.1705 120.752 51.5874 119.335 53.3352 119.335C55.0831 119.335 56.5 120.752 56.5 122.5Z" fill="white"/>
<path d="M56.5 122.5C56.5 124.248 55.0831 125.665 53.3352 125.665C51.5874 125.665 50.1705 124.248 50.1705 122.5C50.1705 120.752 51.5874 119.335 53.3352 119.335C55.0831 119.335 56.5 120.752 56.5 122.5Z" fill="white"/>
<path d="M56.5 122.5C56.5 124.248 55.0831 125.665 53.3352 125.665C51.5874 125.665 50.1705 124.248 50.1705 122.5C50.1705 120.752 51.5874 119.335 53.3352 119.335C55.0831 119.335 56.5 120.752 56.5 122.5Z" fill="white"/>
<path d="M31.8186 112C31.8186 113.748 30.4017 115.165 28.6539 115.165C26.906 115.165 25.4891 113.748 25.4891 112C25.4891 110.252 26.906 108.835 28.6539 108.835C30.4017 108.835 31.8186 110.252 31.8186 112Z" fill="white"/>
<path d="M31.8186 112C31.8186 113.748 30.4017 115.165 28.6539 115.165C26.906 115.165 25.4891 113.748 25.4891 112C25.4891 110.252 26.906 108.835 28.6539 108.835C30.4017 108.835 31.8186 110.252 31.8186 112Z" fill="white"/>
<path d="M31.8186 112C31.8186 113.748 30.4017 115.165 28.6539 115.165C26.906 115.165 25.4891 113.748 25.4891 112C25.4891 110.252 26.906 108.835 28.6539 108.835C30.4017 108.835 31.8186 110.252 31.8186 112Z" fill="white"/>
<path d="M31.8186 112C31.8186 113.748 30.4017 115.165 28.6539 115.165C26.906 115.165 25.4891 113.748 25.4891 112C25.4891 110.252 26.906 108.835 28.6539 108.835C30.4017 108.835 31.8186 110.252 31.8186 112Z" fill="white"/>
<path d="M82.0848 36.6706C82.0848 38.4184 80.6679 39.8353 78.92 39.8353C77.1722 39.8353 75.7553 38.4184 75.7553 36.6706C75.7553 34.9227 77.1722 33.5058 78.92 33.5058C80.6679 33.5058 82.0848 34.9227 82.0848 36.6706Z" fill="white"/>
<path d="M82.0848 36.6706C82.0848 38.4184 80.6679 39.8353 78.92 39.8353C77.1722 39.8353 75.7553 38.4184 75.7553 36.6706C75.7553 34.9227 77.1722 33.5058 78.92 33.5058C80.6679 33.5058 82.0848 34.9227 82.0848 36.6706Z" fill="white"/>
<path d="M82.0848 36.6706C82.0848 38.4184 80.6679 39.8353 78.92 39.8353C77.1722 39.8353 75.7553 38.4184 75.7553 36.6706C75.7553 34.9227 77.1722 33.5058 78.92 33.5058C80.6679 33.5058 82.0848 34.9227 82.0848 36.6706Z" fill="white"/>
<path d="M82.0848 36.6706C82.0848 38.4184 80.6679 39.8353 78.92 39.8353C77.1722 39.8353 75.7553 38.4184 75.7553 36.6706C75.7553 34.9227 77.1722 33.5058 78.92 33.5058C80.6679 33.5058 82.0848 34.9227 82.0848 36.6706Z" fill="white"/>
<path d="M43.8294 91C43.8294 92.7478 42.4125 94.1647 40.6647 94.1647C38.9168 94.1647 37.5 92.7478 37.5 91C37.5 89.2522 38.9168 87.8353 40.6647 87.8353C42.4125 87.8353 43.8294 89.2522 43.8294 91Z" fill="white"/>
<path d="M43.8294 91C43.8294 92.7478 42.4125 94.1647 40.6647 94.1647C38.9168 94.1647 37.5 92.7478 37.5 91C37.5 89.2522 38.9168 87.8353 40.6647 87.8353C42.4125 87.8353 43.8294 89.2522 43.8294 91Z" fill="white"/>
<path d="M43.8294 91C43.8294 92.7478 42.4125 94.1647 40.6647 94.1647C38.9168 94.1647 37.5 92.7478 37.5 91C37.5 89.2522 38.9168 87.8353 40.6647 87.8353C42.4125 87.8353 43.8294 89.2522 43.8294 91Z" fill="white"/>
<path d="M43.8294 91C43.8294 92.7478 42.4125 94.1647 40.6647 94.1647C38.9168 94.1647 37.5 92.7478 37.5 91C37.5 89.2522 38.9168 87.8353 40.6647 87.8353C42.4125 87.8353 43.8294 89.2522 43.8294 91Z" fill="white"/>
<path d="M6.46664 76.6647C6.46664 78.4125 5.04975 79.8294 3.30192 79.8294C1.5541 79.8294 0.137207 78.4125 0.137207 76.6647C0.137207 74.9169 1.5541 73.5 3.30192 73.5C5.04975 73.5 6.46664 74.9169 6.46664 76.6647Z" fill="white"/>
<path d="M6.46664 76.6647C6.46664 78.4125 5.04975 79.8294 3.30192 79.8294C1.5541 79.8294 0.137207 78.4125 0.137207 76.6647C0.137207 74.9169 1.5541 73.5 3.30192 73.5C5.04975 73.5 6.46664 74.9169 6.46664 76.6647Z" fill="white"/>
<path d="M6.46664 76.6647C6.46664 78.4125 5.04975 79.8294 3.30192 79.8294C1.5541 79.8294 0.137207 78.4125 0.137207 76.6647C0.137207 74.9169 1.5541 73.5 3.30192 73.5C5.04975 73.5 6.46664 74.9169 6.46664 76.6647Z" fill="white"/>
<path d="M6.46664 76.6647C6.46664 78.4125 5.04975 79.8294 3.30192 79.8294C1.5541 79.8294 0.137207 78.4125 0.137207 76.6647C0.137207 74.9169 1.5541 73.5 3.30192 73.5C5.04975 73.5 6.46664 74.9169 6.46664 76.6647Z" fill="white"/>
<path d="M6.5184 113.5C6.5184 115.248 5.10151 116.664 3.35368 116.664C1.60586 116.664 0.188965 115.248 0.188965 113.5C0.188965 111.752 1.60586 110.335 3.35368 110.335C5.10151 110.335 6.5184 111.752 6.5184 113.5Z" fill="white"/>
<path d="M6.5184 113.5C6.5184 115.248 5.10151 116.664 3.35368 116.664C1.60586 116.664 0.188965 115.248 0.188965 113.5C0.188965 111.752 1.60586 110.335 3.35368 110.335C5.10151 110.335 6.5184 111.752 6.5184 113.5Z" fill="white"/>
<path d="M6.5184 113.5C6.5184 115.248 5.10151 116.664 3.35368 116.664C1.60586 116.664 0.188965 115.248 0.188965 113.5C0.188965 111.752 1.60586 110.335 3.35368 110.335C5.10151 110.335 6.5184 111.752 6.5184 113.5Z" fill="white"/>
<path d="M6.5184 113.5C6.5184 115.248 5.10151 116.664 3.35368 116.664C1.60586 116.664 0.188965 115.248 0.188965 113.5C0.188965 111.752 1.60586 110.335 3.35368 110.335C5.10151 110.335 6.5184 111.752 6.5184 113.5Z" fill="white"/>
</svg>
