<svg width="198" height="199" viewBox="0 0 198 199" fill="none" xmlns="http://www.w3.org/2000/svg">
<path d="M53.4727 148.666L62.4716 159.666L73.4719 170.666L87.4717 178.666L97.4721 189.665L120.972 174.665L139.972 159.667L146.972 137.166L155.972 131.166L165.972 118.666L155.972 106.666L160.472 87.666L160.472 65.666L125.472 36.166L114.972 26.666L73.4718 24.1658L41.9718 54.1658L40.7218 67.9158L39.4718 82.6658L38.4717 113.166L38.4718 125.666L53.4727 148.666Z" stroke="#3FEFEF" stroke-width="3"/>
<path d="M78.4719 24.1658L127.972 16.1658L130.472 26.166L144.472 18.666L144.472 39.166L158.972 45.166L160.472 65.666" stroke="#3FEFEF" stroke-width="3"/>
<path d="M147.972 90.666L110.972 100.666L67.4718 103.667L60.4716 156.166L139.97 159.166" stroke="#3FEFEF" stroke-width="3"/>
<path d="M159.471 66.1662L121.972 82.166L156.971 131.166" stroke="#3FEFEF" stroke-width="3"/>
<path d="M88.4716 180.166L145.972 137.666" stroke="#3FEFEF" stroke-width="3"/>
<path d="M72.4722 170.166L149.972 135.166" stroke="#3FEFEF" stroke-width="3"/>
<path d="M89.9716 180.666L120.971 174.666" stroke="#3FEFEF" stroke-width="3"/>
<path d="M97.9715 173.38L119.972 174.166" stroke="#3FEFEF" stroke-width="3"/>
<path d="M144.473 39.166L128.972 33.6651L88.4717 39.1657L86.4721 71.6666L147.471 90.6658L155.472 106.166L128.972 127.166L121.473 125.166L102.973 130.666L76.4723 138.665L121.473 174.666" stroke="#3FEFEF" stroke-width="3"/>
<path d="M40.4716 72.666L138.971 158.665" stroke="#3FEFEF" stroke-width="3"/>
<path d="M38.4712 125.166L63.9721 123.166L108.472 142.666L129.472 126.666" stroke="#3FEFEF" stroke-width="3"/>
<path d="M122.972 56.666L109.972 100.166" stroke="#3FEFEF" stroke-width="3"/>
<path d="M126.972 35.1662L104.472 62.666L157.972 45.1659" stroke="#3FEFEF" stroke-width="3"/>
<path d="M122.972 57.6654L159.972 87.1658" stroke="#3FEFEF" stroke-width="3"/>
<path d="M59.9715 36.6659L85.9712 70.1659" stroke="#3FEFEF" stroke-width="3"/>
<path d="M86.972 71.1659L86.972 101.166L121.471 125.166" stroke="#3FEFEF" stroke-width="3"/>
<path d="M39.4714 89.1662L54.9717 79.166L86.4717 71.666" stroke="#3FEFEF" stroke-width="3"/>
<path d="M40.47 71.6657L76.4716 68.6655L86.9717 71.6657L110.471 100.165" stroke="#3FEFEF" stroke-width="3"/>
<path d="M42.9714 53.6654L158.471 45.666" stroke="#3FEFEF" stroke-width="3"/>
</svg>

