<svg xmlns="http://www.w3.org/2000/svg" version="1.1" xmlns:xlink="http://www.w3.org/1999/xlink" x="0" y="0" viewBox="0 0 42 60" style="enable-background:new 0 0 512 512" xml:space="preserve" class=""><g><g fill="#000" fill-rule="nonzero"><path d="M24 41h-6a1 1 0 0 0 0 2h6a1 1 0 0 0 0-2zM22 45h-2a1 1 0 0 0 0 2h2a1 1 0 0 0 0-2zM16 30h-4a1 1 0 0 0 0 2h1a1 1 0 0 0 2 0h1a1 1 0 0 0 0-2zM30 30h-4a1 1 0 0 0 0 2h1a1 1 0 0 0 2 0h1a1 1 0 0 0 0-2zM20 38h2a1 1 0 0 0 0-2h-2a1 1 0 0 0 0 2zM17 28a1 1 0 0 0 0-2h-6a1 1 0 0 0 0 2zM31 26h-6a1 1 0 0 0 0 2h6a1 1 0 0 0 0-2z" fill="#3fefef" opacity="1" data-original="#000000" class=""/><path d="M5 38.917V40.9c0 1.873.807 3.655 2.212 4.893l3.707 3.241a28.3 28.3 0 0 1-1.762 8.212 1.978 1.978 0 0 0 .182 1.863A2 2 0 0 0 11.01 60h19.98a2 2 0 0 0 1.671-.891c.369-.55.438-1.248.184-1.86a28.278 28.278 0 0 1-1.764-8.215l3.71-3.244A6.522 6.522 0 0 0 37 40.9v-1.983a6 6 0 0 0 4-9.227V12a5.006 5.006 0 0 0-5-5V1.75A1.5 1.5 0 0 0 33.566.579L31 2.629V1.75A1.5 1.5 0 0 0 28.566.579L26 2.629V1.65A1.5 1.5 0 0 0 23.665.4L20 2.842V1.5a1.491 1.491 0 0 0-.7-1.271 1.474 1.474 0 0 0-1.436-.083L6.743 5.376A10.046 10.046 0 0 0 1 14.42v15.27a6 6 0 0 0 4 9.227zM30.99 58l-19.985.011a28.644 28.644 0 0 0 1.769-7.356l1.993 1.745a6.544 6.544 0 0 0 3.447 1.524c.445.589.953 1.128 1.515 1.607.354.304.805.47 1.271.469.466 0 .917-.165 1.275-.464a9.26 9.26 0 0 0 1.56-1.617 6.447 6.447 0 0 0 3.4-1.525l1.988-1.738A28.6 28.6 0 0 0 30.99 58zm-8-6.906c-.31 1.164-1 2.19-1.961 2.918A5.51 5.51 0 0 1 19.04 51l3.94.01a.092.092 0 0 1 .014.083zM36 37a1 1 0 0 0-1 1v2.9c0 1.296-.557 2.53-1.528 3.387l-7.549 6.6a4.5 4.5 0 0 1-.977.635 2.082 2.082 0 0 0-.4-1.761A2.018 2.018 0 0 0 22.96 49h-3.92a2.018 2.018 0 0 0-1.582.76 2.092 2.092 0 0 0-.4 1.76 4.643 4.643 0 0 1-.976-.633l-7.547-6.6A4.526 4.526 0 0 1 7 40.9V38a1 1 0 0 0-1-1 3.992 3.992 0 0 1-1-7.858V31a1 1 0 0 0 2 0v-3.984c0-1.75.532-6.667 2.919-8.381a4.15 4.15 0 0 1 3.944-.289 40.815 40.815 0 0 1 5.349 2.254c3.459 1.688 5.764 2.815 13.539 1.456A6.338 6.338 0 0 1 35 27.015V31a1 1 0 0 0 2 0v-1.858A3.992 3.992 0 0 1 36 37zM7.6 7.185 18 2.292V3.78c0 .559.31 1.07.806 1.329a1.48 1.48 0 0 0 1.529-.087L24 2.579V3.67a1.5 1.5 0 0 0 2.434 1.172L29 2.792v.878a1.5 1.5 0 0 0 2.434 1.172L34 2.792V7h-1a1 1 0 0 0 0 2h3a3 3 0 0 1 3 3v15.812a5.966 5.966 0 0 0-2-.722v-.075a8.258 8.258 0 0 0-3.466-6.861 1.012 1.012 0 0 0-.713-.138c-7.471 1.359-9.34.446-12.731-1.21a42.757 42.757 0 0 0-5.59-2.355 6.08 6.08 0 0 0-5.751.562C5.043 19.678 5 26.713 5 27.013v.075a5.966 5.966 0 0 0-2 .722V14.42a8.038 8.038 0 0 1 4.6-7.235z" fill="#3fefef" opacity="1" data-original="#000000" class=""/></g></g></svg>