<svg width="1141" height="792" viewBox="0 0 1141 792" fill="none" xmlns="http://www.w3.org/2000/svg">
<path d="M113.5 0L135.5 21.5H649L720 55H1063L1091.5 27H1122.5L1140.5 42.5V109L1122.5 123.5V313.5L1091.5 361V519.5H1119.5V752L1091.5 773.5H980.5L930.5 792H599L551.5 773.5H46.5L0 724.5V666L14.5 634V539.5L0 507V437V408V383L22.5 350.5V286L0 252.5V0H113.5Z" fill="#F8F8F8"/>
<path d="M19.5 154.593V87.7132V44.5L32.5 31H286.5L344.029 52.9625H652.545L708.5 71.9263H1064.82L1081.53 87.7132V209.384L1102 237.702V324.213L1081.53 354.211V442.645L1064.82 463.472V536.846L1081.53 570.81V636.815L1102 674.304V731.017L1064.82 759.213H799.954H247V743.213H191.501V718.213H159.5L56.5 607.03H41.7881V519.864L23 509V433L41.7881 422.138V393.942L62 379.713V247.703L41.7881 224.443V173.497L19.5 154.593Z" fill="#1A1D20"/>
<line x1="170.5" y1="131" x2="170.5" y2="371" stroke="white" stroke-opacity="0.4"/>
<line x1="714.5" y1="106" x2="714.5" y2="393" stroke="white" stroke-opacity="0.4"/>
<line x1="301.5" y1="103" x2="301.5" y2="388" stroke="white" stroke-opacity="0.4"/>
<line x1="1013" y1="251.5" x2="131" y2="251.5" stroke="white" stroke-opacity="0.4"/>
<line x1="981" y1="126.5" x2="170" y2="126.5" stroke="white" stroke-opacity="0.4"/>
<line x1="968" y1="382.5" x2="177" y2="382.5" stroke="white" stroke-opacity="0.4"/>
<line x1="845.5" y1="106" x2="845.5" y2="393" stroke="white" stroke-opacity="0.4"/>
<line x1="438.5" y1="106" x2="438.5" y2="393" stroke="white" stroke-opacity="0.4"/>
<line x1="981.5" y1="141.996" x2="983.5" y2="364.996" stroke="white" stroke-opacity="0.4"/>
<line x1="577.5" y1="106" x2="577.5" y2="393" stroke="white" stroke-opacity="0.4"/>
<line x1="193.5" y1="99" x2="193.5" y2="393" stroke="white" stroke-opacity="0.15"/>
<line x1="321.5" y1="102" x2="321.5" y2="396" stroke="white" stroke-opacity="0.15"/>
<line x1="465.5" y1="102" x2="465.5" y2="396" stroke="white" stroke-opacity="0.15"/>
<line x1="605.5" y1="107" x2="605.5" y2="401" stroke="white" stroke-opacity="0.15"/>
<line x1="739.5" y1="103" x2="739.5" y2="397" stroke="white" stroke-opacity="0.15"/>
<line x1="873.5" y1="102" x2="873.5" y2="396" stroke="white" stroke-opacity="0.15"/>
<line x1="144.5" y1="144" x2="144.5" y2="353" stroke="white" stroke-opacity="0.15"/>
<line x1="221.5" y1="103" x2="221.5" y2="397" stroke="white" stroke-opacity="0.15"/>
<line x1="349.5" y1="106" x2="349.5" y2="400" stroke="white" stroke-opacity="0.15"/>
<line x1="493.5" y1="106" x2="493.5" y2="400" stroke="white" stroke-opacity="0.15"/>
<line x1="633.5" y1="111" x2="633.5" y2="405" stroke="white" stroke-opacity="0.15"/>
<line x1="767.5" y1="107" x2="767.5" y2="401" stroke="white" stroke-opacity="0.15"/>
<line x1="901.5" y1="106" x2="901.5" y2="400" stroke="white" stroke-opacity="0.15"/>
<line x1="251.5" y1="104" x2="251.5" y2="398" stroke="white" stroke-opacity="0.15"/>
<line x1="379.5" y1="107" x2="379.5" y2="401" stroke="white" stroke-opacity="0.15"/>
<line x1="523.5" y1="107" x2="523.5" y2="401" stroke="white" stroke-opacity="0.15"/>
<line x1="663.5" y1="112" x2="663.5" y2="406" stroke="white" stroke-opacity="0.15"/>
<line x1="797.5" y1="108" x2="797.5" y2="402" stroke="white" stroke-opacity="0.15"/>
<line x1="931.5" y1="107" x2="931.5" y2="401" stroke="white" stroke-opacity="0.15"/>
<line x1="281.5" y1="102" x2="281.5" y2="396" stroke="white" stroke-opacity="0.15"/>
<line x1="409.5" y1="105" x2="409.5" y2="399" stroke="white" stroke-opacity="0.15"/>
<line x1="553.5" y1="105" x2="553.5" y2="399" stroke="white" stroke-opacity="0.15"/>
<line x1="693.5" y1="110" x2="693.5" y2="404" stroke="white" stroke-opacity="0.15"/>
<line x1="827.5" y1="106" x2="827.5" y2="400" stroke="white" stroke-opacity="0.15"/>
<line x1="961.5" y1="105" x2="961.5" y2="399" stroke="white" stroke-opacity="0.15"/>
<line x1="1005.5" y1="151" x2="1005.5" y2="349" stroke="white" stroke-opacity="0.15"/>
<line x1="160" y1="151.5" x2="991" y2="151.5" stroke="white" stroke-opacity="0.15"/>
<line x1="135" y1="278.5" x2="1018" y2="278.5" stroke="white" stroke-opacity="0.15"/>
<line x1="131" y1="175.5" x2="1014" y2="175.5" stroke="white" stroke-opacity="0.15"/>
<line x1="132" y1="302.5" x2="1015" y2="302.5" stroke="white" stroke-opacity="0.15"/>
<line x1="131" y1="199.5" x2="1014" y2="199.5" stroke="white" stroke-opacity="0.15"/>
<line x1="132" y1="326.5" x2="1015" y2="326.5" stroke="white" stroke-opacity="0.15"/>
<line x1="131" y1="225.5" x2="1014" y2="225.5" stroke="white" stroke-opacity="0.15"/>
<line x1="158" y1="352.5" x2="989" y2="352.5" stroke="white" stroke-opacity="0.15"/>
<path d="M206.5 107L136 169H106L196 92H547.5L518.5 107H206.5Z" fill="#F8F8F8"/>
<path d="M940 107L1010.5 169H1040.5L950.5 92H599L628 107H940Z" fill="#F8F8F8"/>
<path d="M941 394L1011.5 332H1041.5L951.5 409H600L629 394H941Z" fill="#F8F8F8"/>
<path d="M209.5 394L139 332H109L199 409H550.5L521.5 394H209.5Z" fill="#F8F8F8"/>
<path d="M131 199.5L114 188V195.5L131 208V199.5Z" fill="#F8F8F8"/>
<path d="M1018 199.5L1035 188V195.5L1018 208V199.5Z" fill="#F8F8F8"/>
<path d="M131 219.5L114 208V215.5L131 228V219.5Z" fill="#F8F8F8"/>
<path d="M1018 219.5L1035 208V215.5L1018 228V219.5Z" fill="#F8F8F8"/>
<path d="M131 238.5L114 227V234.5L131 247V238.5Z" fill="#F8F8F8"/>
<path d="M1018 238.5L1035 227V234.5L1018 247V238.5Z" fill="#F8F8F8"/>
<path d="M131 258.5L114 247V254.5L131 267V258.5Z" fill="#F8F8F8"/>
<path d="M1018 258.5L1035 247V254.5L1018 267V258.5Z" fill="#F8F8F8"/>
<path d="M131 277.5L114 266V273.5L131 286V277.5Z" fill="#F8F8F8"/>
<path d="M1018 277.5L1035 266V273.5L1018 286V277.5Z" fill="#F8F8F8"/>
<path d="M131 297.5L114 286V293.5L131 306V297.5Z" fill="#F8F8F8"/>
<path d="M1018 297.5L1035 286V293.5L1018 306V297.5Z" fill="#F8F8F8"/>
<path d="M474 116H455L475 141H664.5L696 116H674L660 126.5H630.5L599.5 110H548.5L518 126.5H484.5L474 116Z" fill="#F8F8F8"/>
<path d="M474 382H455L475 357H664.5L696 382H674L660 371.5H630.5L599.5 388H548.5L518 371.5H484.5L474 382Z" fill="#F8F8F8"/>
<path d="M849 157H301V208.5L322.5 225.5V276.5L301 298V337H849V298L827 276.5V225.5L849 208.5V157Z" fill="#F8F8F8"/>
<path d="M487.02 213.891H474.988V226H470.262V197.562H488.738V201.449H474.988V210.023H487.02V213.891ZM507.547 226C507.404 225.74 507.286 225.427 507.195 225.062C507.117 224.685 507.046 224.294 506.98 223.891C506.655 224.229 506.284 224.555 505.867 224.867C505.464 225.167 505.008 225.427 504.5 225.648C503.992 225.883 503.445 226.065 502.859 226.195C502.273 226.326 501.642 226.391 500.965 226.391C499.871 226.391 498.868 226.234 497.957 225.922C497.059 225.596 496.29 225.154 495.652 224.594C495.001 224.047 494.493 223.389 494.129 222.621C493.777 221.84 493.602 221 493.602 220.102C493.602 218.943 493.829 217.921 494.285 217.035C494.754 216.137 495.431 215.395 496.316 214.809C497.137 214.262 498.146 213.845 499.344 213.559C500.555 213.272 501.922 213.129 503.445 213.129H506.844V211.703C506.844 211.156 506.746 210.661 506.551 210.219C506.368 209.776 506.102 209.392 505.75 209.066C505.372 208.741 504.91 208.493 504.363 208.324C503.829 208.142 503.211 208.051 502.508 208.051C501.87 208.051 501.31 208.129 500.828 208.285C500.359 208.441 499.969 208.656 499.656 208.93C499.344 209.177 499.109 209.483 498.953 209.848C498.81 210.199 498.738 210.577 498.738 210.98H494.051C494.064 210.134 494.266 209.32 494.656 208.539C495.047 207.758 495.62 207.068 496.375 206.469C497.104 205.857 498.003 205.375 499.07 205.023C500.151 204.659 501.382 204.477 502.762 204.477C503.999 204.477 505.151 204.633 506.219 204.945C507.299 205.245 508.23 205.694 509.012 206.293C509.793 206.892 510.405 207.654 510.848 208.578C511.29 209.49 511.512 210.544 511.512 211.742V221.137C511.512 222.087 511.577 222.947 511.707 223.715C511.85 224.47 512.052 225.121 512.312 225.668V226H507.547ZM501.863 222.641C502.475 222.641 503.042 222.562 503.562 222.406C504.096 222.25 504.578 222.048 505.008 221.801C505.438 221.553 505.809 221.273 506.121 220.961C506.434 220.648 506.674 220.323 506.844 219.984V216.078H503.836C502.82 216.078 501.941 216.176 501.199 216.371C500.457 216.553 499.865 216.82 499.422 217.172C499.031 217.471 498.738 217.829 498.543 218.246C498.361 218.663 498.27 219.132 498.27 219.652C498.27 220.082 498.348 220.486 498.504 220.863C498.66 221.228 498.888 221.54 499.188 221.801C499.487 222.061 499.858 222.27 500.301 222.426C500.743 222.569 501.264 222.641 501.863 222.641ZM527.273 222.641C527.859 222.641 528.419 222.556 528.953 222.387C529.5 222.204 529.982 221.951 530.398 221.625C530.802 221.299 531.121 220.915 531.355 220.473C531.603 220.03 531.727 219.542 531.727 219.008H536.121C536.134 220.036 535.9 221.007 535.418 221.918C534.949 222.816 534.311 223.591 533.504 224.242C532.684 224.919 531.74 225.453 530.672 225.844C529.617 226.221 528.504 226.41 527.332 226.41C525.704 226.41 524.279 226.13 523.055 225.57C521.844 224.997 520.835 224.229 520.027 223.266C519.207 222.302 518.589 221.182 518.172 219.906C517.755 218.617 517.547 217.243 517.547 215.785V215.102C517.547 213.656 517.749 212.289 518.152 211C518.569 209.711 519.188 208.585 520.008 207.621C520.828 206.658 521.844 205.896 523.055 205.336C524.279 204.763 525.698 204.477 527.312 204.477C528.589 204.477 529.767 204.672 530.848 205.062C531.941 205.453 532.879 206 533.66 206.703C534.441 207.406 535.047 208.246 535.477 209.223C535.919 210.199 536.134 211.273 536.121 212.445H531.727C531.727 211.872 531.616 211.332 531.395 210.824C531.186 210.316 530.887 209.874 530.496 209.496C530.092 209.118 529.611 208.819 529.051 208.598C528.504 208.376 527.911 208.266 527.273 208.266C526.297 208.266 525.483 208.467 524.832 208.871C524.194 209.262 523.686 209.776 523.309 210.414C522.905 211.052 522.618 211.781 522.449 212.602C522.293 213.422 522.215 214.255 522.215 215.102V215.785C522.215 216.645 522.293 217.491 522.449 218.324C522.618 219.145 522.898 219.867 523.289 220.492C523.667 221.143 524.181 221.664 524.832 222.055C525.483 222.445 526.297 222.641 527.273 222.641ZM551.961 226.391C550.398 226.391 548.966 226.13 547.664 225.609C546.375 225.089 545.268 224.366 544.344 223.441C543.419 222.53 542.703 221.456 542.195 220.219C541.701 218.969 541.453 217.621 541.453 216.176V215.375C541.453 213.721 541.714 212.224 542.234 210.883C542.755 209.542 543.471 208.396 544.383 207.445C545.294 206.495 546.349 205.766 547.547 205.258C548.758 204.737 550.047 204.477 551.414 204.477C552.938 204.477 554.285 204.737 555.457 205.258C556.629 205.766 557.612 206.475 558.406 207.387C559.201 208.311 559.799 209.411 560.203 210.688C560.607 211.964 560.809 213.357 560.809 214.867V216.879H546.16V216.977C546.303 217.901 546.525 218.676 546.824 219.301C547.124 219.926 547.534 220.486 548.055 220.98C548.576 221.501 549.188 221.905 549.891 222.191C550.607 222.478 551.388 222.621 552.234 222.621C553.393 222.621 554.474 222.4 555.477 221.957C556.479 221.501 557.306 220.857 557.957 220.023L560.457 222.445C559.754 223.461 558.673 224.372 557.215 225.18C555.77 225.987 554.018 226.391 551.961 226.391ZM551.395 208.266C550.73 208.266 550.112 208.389 549.539 208.637C548.979 208.871 548.478 209.21 548.035 209.652C547.592 210.108 547.221 210.655 546.922 211.293C546.622 211.931 546.401 212.654 546.258 213.461H556.199V213.148C556.199 212.536 556.089 211.931 555.867 211.332C555.646 210.72 555.333 210.186 554.93 209.73C554.539 209.288 554.044 208.936 553.445 208.676C552.859 208.402 552.176 208.266 551.395 208.266ZM579.812 219.457H570.887L568.953 226H564.07L573.328 197.562H577.488L586.59 226H581.727L579.812 219.457ZM572.078 215.434H578.66L575.398 204.184L572.078 215.434ZM591.902 226L587.82 204.867H592.039L593.992 217.816L594.324 220.258L594.754 217.816L597.508 204.867H600.574L603.328 217.777L603.777 220.336L604.148 217.758L606.043 204.867H610.281L606.199 226H602.234L599.5 214.008L599.012 211.391L598.543 214.008L595.867 226H591.902ZM627.664 226C627.521 225.74 627.404 225.427 627.312 225.062C627.234 224.685 627.163 224.294 627.098 223.891C626.772 224.229 626.401 224.555 625.984 224.867C625.581 225.167 625.125 225.427 624.617 225.648C624.109 225.883 623.562 226.065 622.977 226.195C622.391 226.326 621.759 226.391 621.082 226.391C619.988 226.391 618.986 226.234 618.074 225.922C617.176 225.596 616.408 225.154 615.77 224.594C615.118 224.047 614.611 223.389 614.246 222.621C613.895 221.84 613.719 221 613.719 220.102C613.719 218.943 613.947 217.921 614.402 217.035C614.871 216.137 615.548 215.395 616.434 214.809C617.254 214.262 618.263 213.845 619.461 213.559C620.672 213.272 622.039 213.129 623.562 213.129H626.961V211.703C626.961 211.156 626.863 210.661 626.668 210.219C626.486 209.776 626.219 209.392 625.867 209.066C625.49 208.741 625.027 208.493 624.48 208.324C623.947 208.142 623.328 208.051 622.625 208.051C621.987 208.051 621.427 208.129 620.945 208.285C620.477 208.441 620.086 208.656 619.773 208.93C619.461 209.177 619.227 209.483 619.07 209.848C618.927 210.199 618.855 210.577 618.855 210.98H614.168C614.181 210.134 614.383 209.32 614.773 208.539C615.164 207.758 615.737 207.068 616.492 206.469C617.221 205.857 618.12 205.375 619.188 205.023C620.268 204.659 621.499 204.477 622.879 204.477C624.116 204.477 625.268 204.633 626.336 204.945C627.417 205.245 628.348 205.694 629.129 206.293C629.91 206.892 630.522 207.654 630.965 208.578C631.408 209.49 631.629 210.544 631.629 211.742V221.137C631.629 222.087 631.694 222.947 631.824 223.715C631.967 224.47 632.169 225.121 632.43 225.668V226H627.664ZM621.98 222.641C622.592 222.641 623.159 222.562 623.68 222.406C624.214 222.25 624.695 222.048 625.125 221.801C625.555 221.553 625.926 221.273 626.238 220.961C626.551 220.648 626.792 220.323 626.961 219.984V216.078H623.953C622.938 216.078 622.059 216.176 621.316 216.371C620.574 216.553 619.982 216.82 619.539 217.172C619.148 217.471 618.855 217.829 618.66 218.246C618.478 218.663 618.387 219.132 618.387 219.652C618.387 220.082 618.465 220.486 618.621 220.863C618.777 221.228 619.005 221.54 619.305 221.801C619.604 222.061 619.975 222.27 620.418 222.426C620.861 222.569 621.382 222.641 621.98 222.641ZM652.801 204.477C653.556 204.477 654.285 204.529 654.988 204.633C655.704 204.737 656.264 204.861 656.668 205.004L656.004 209.613C655.288 209.457 654.578 209.34 653.875 209.262C653.185 209.184 652.495 209.145 651.805 209.145C651.023 209.145 650.32 209.223 649.695 209.379C649.07 209.535 648.517 209.776 648.035 210.102C647.514 210.414 647.072 210.811 646.707 211.293C646.342 211.775 646.036 212.328 645.789 212.953V226H641.121V204.867H645.496L645.691 207.797L645.711 208.285C646.57 207.1 647.599 206.169 648.797 205.492C650.008 204.815 651.342 204.477 652.801 204.477ZM672.078 226.391C670.516 226.391 669.083 226.13 667.781 225.609C666.492 225.089 665.385 224.366 664.461 223.441C663.536 222.53 662.82 221.456 662.312 220.219C661.818 218.969 661.57 217.621 661.57 216.176V215.375C661.57 213.721 661.831 212.224 662.352 210.883C662.872 209.542 663.589 208.396 664.5 207.445C665.411 206.495 666.466 205.766 667.664 205.258C668.875 204.737 670.164 204.477 671.531 204.477C673.055 204.477 674.402 204.737 675.574 205.258C676.746 205.766 677.729 206.475 678.523 207.387C679.318 208.311 679.917 209.411 680.32 210.688C680.724 211.964 680.926 213.357 680.926 214.867V216.879H666.277V216.977C666.421 217.901 666.642 218.676 666.941 219.301C667.241 219.926 667.651 220.486 668.172 220.98C668.693 221.501 669.305 221.905 670.008 222.191C670.724 222.478 671.505 222.621 672.352 222.621C673.51 222.621 674.591 222.4 675.594 221.957C676.596 221.501 677.423 220.857 678.074 220.023L680.574 222.445C679.871 223.461 678.79 224.372 677.332 225.18C675.887 225.987 674.135 226.391 672.078 226.391ZM671.512 208.266C670.848 208.266 670.229 208.389 669.656 208.637C669.096 208.871 668.595 209.21 668.152 209.652C667.71 210.108 667.339 210.655 667.039 211.293C666.74 211.931 666.518 212.654 666.375 213.461H676.316V213.148C676.316 212.536 676.206 211.931 675.984 211.332C675.763 210.72 675.451 210.186 675.047 209.73C674.656 209.288 674.161 208.936 673.562 208.676C672.977 208.402 672.293 208.266 671.512 208.266Z" fill="#1A1D20"/>
<path d="M511.789 283.055H507.992L507.078 286H505.633L509.305 274.625H510.516L514.125 286H512.688L511.789 283.055ZM508.383 281.797H511.406L509.906 276.859L508.383 281.797ZM528.367 286L524.773 274.625H526.32L528.82 283.117L528.984 283.672L529.156 283.102L531.672 274.625H533.211L529.625 286H528.367ZM538.953 281.359H536.68V286H535.242V274.625H538.578C539.109 274.635 539.609 274.711 540.078 274.852C540.547 274.992 540.958 275.203 541.312 275.484C541.661 275.766 541.935 276.12 542.133 276.547C542.336 276.969 542.438 277.466 542.438 278.039C542.438 278.409 542.383 278.747 542.273 279.055C542.169 279.362 542.023 279.641 541.836 279.891C541.648 280.141 541.424 280.362 541.164 280.555C540.904 280.747 540.617 280.911 540.305 281.047L542.719 285.906L542.711 286H541.188L538.953 281.359ZM536.68 280.172H538.617C538.94 280.167 539.245 280.117 539.531 280.023C539.818 279.924 540.07 279.784 540.289 279.602C540.503 279.419 540.672 279.198 540.797 278.938C540.922 278.672 540.984 278.367 540.984 278.023C540.984 277.659 540.924 277.341 540.805 277.07C540.685 276.794 540.518 276.562 540.305 276.375C540.091 276.193 539.836 276.055 539.539 275.961C539.247 275.867 538.927 275.818 538.578 275.812H536.68V280.172ZM558.141 286.156C557.547 286.156 557 286.055 556.5 285.852C556.005 285.648 555.581 285.365 555.227 285C554.872 284.635 554.596 284.203 554.398 283.703C554.201 283.203 554.102 282.659 554.102 282.07V281.742C554.102 281.06 554.211 280.451 554.43 279.914C554.648 279.372 554.94 278.914 555.305 278.539C555.664 278.169 556.073 277.885 556.531 277.688C556.995 277.49 557.469 277.391 557.953 277.391C558.562 277.391 559.094 277.497 559.547 277.711C560.005 277.919 560.385 278.208 560.688 278.578C560.99 278.953 561.214 279.393 561.359 279.898C561.51 280.404 561.586 280.951 561.586 281.539V282.188H555.547V282.242C555.583 282.654 555.664 283.016 555.789 283.328C555.919 283.641 556.096 283.917 556.32 284.156C556.549 284.411 556.826 284.612 557.148 284.758C557.471 284.904 557.828 284.977 558.219 284.977C558.734 284.977 559.193 284.872 559.594 284.664C559.995 284.456 560.328 284.18 560.594 283.836L561.477 284.523C561.195 284.951 560.773 285.331 560.211 285.664C559.654 285.992 558.964 286.156 558.141 286.156ZM557.953 278.578C557.661 278.578 557.385 278.633 557.125 278.742C556.865 278.846 556.63 279 556.422 279.203C556.214 279.411 556.036 279.667 555.891 279.969C555.75 280.266 555.651 280.609 555.594 281H560.141V280.93C560.141 280.669 560.091 280.391 559.992 280.094C559.893 279.792 559.755 279.531 559.578 279.312C559.401 279.094 559.177 278.917 558.906 278.781C558.641 278.646 558.323 278.578 557.953 278.578ZM567.508 280.68L569.766 277.547H571.461L568.312 281.727L571.547 286H569.875L567.539 282.781L565.203 286H563.516L566.75 281.727L563.602 277.547H565.273L567.508 280.68ZM573.617 289.25V277.547H574.938L575.008 278.469C575.122 278.323 575.247 278.193 575.383 278.078C575.518 277.958 575.664 277.857 575.82 277.773C576.039 277.648 576.281 277.555 576.547 277.492C576.818 277.424 577.107 277.391 577.414 277.391C577.956 277.391 578.435 277.497 578.852 277.711C579.268 277.924 579.617 278.221 579.898 278.602C580.18 278.982 580.393 279.438 580.539 279.969C580.685 280.495 580.758 281.073 580.758 281.703V281.867C580.758 282.471 580.685 283.036 580.539 283.562C580.393 284.083 580.18 284.536 579.898 284.922C579.617 285.307 579.268 285.609 578.852 285.828C578.44 286.047 577.969 286.156 577.438 286.156C577.115 286.156 576.812 286.122 576.531 286.055C576.255 285.987 576.005 285.891 575.781 285.766C575.646 285.688 575.518 285.602 575.398 285.508C575.279 285.409 575.167 285.302 575.062 285.188V289.25H573.617ZM579.312 281.703C579.312 281.292 579.266 280.901 579.172 280.531C579.083 280.156 578.945 279.826 578.758 279.539C578.565 279.258 578.323 279.034 578.031 278.867C577.74 278.701 577.391 278.617 576.984 278.617C576.76 278.617 576.552 278.643 576.359 278.695C576.172 278.747 576.003 278.823 575.852 278.922C575.685 279.021 575.536 279.143 575.406 279.289C575.276 279.435 575.161 279.596 575.062 279.773V283.844C575.151 284 575.253 284.146 575.367 284.281C575.482 284.417 575.612 284.531 575.758 284.625C575.924 284.734 576.109 284.82 576.312 284.883C576.521 284.945 576.75 284.977 577 284.977C577.401 284.977 577.747 284.893 578.039 284.727C578.331 284.555 578.57 284.326 578.758 284.039C578.945 283.753 579.083 283.422 579.172 283.047C579.266 282.672 579.312 282.279 579.312 281.867V281.703ZM586.969 286.156C586.375 286.156 585.828 286.055 585.328 285.852C584.833 285.648 584.409 285.365 584.055 285C583.701 284.635 583.424 284.203 583.227 283.703C583.029 283.203 582.93 282.659 582.93 282.07V281.742C582.93 281.06 583.039 280.451 583.258 279.914C583.477 279.372 583.768 278.914 584.133 278.539C584.492 278.169 584.901 277.885 585.359 277.688C585.823 277.49 586.297 277.391 586.781 277.391C587.391 277.391 587.922 277.497 588.375 277.711C588.833 277.919 589.214 278.208 589.516 278.578C589.818 278.953 590.042 279.393 590.188 279.898C590.339 280.404 590.414 280.951 590.414 281.539V282.188H584.375V282.242C584.411 282.654 584.492 283.016 584.617 283.328C584.747 283.641 584.924 283.917 585.148 284.156C585.378 284.411 585.654 284.612 585.977 284.758C586.299 284.904 586.656 284.977 587.047 284.977C587.562 284.977 588.021 284.872 588.422 284.664C588.823 284.456 589.156 284.18 589.422 283.836L590.305 284.523C590.023 284.951 589.602 285.331 589.039 285.664C588.482 285.992 587.792 286.156 586.969 286.156ZM586.781 278.578C586.49 278.578 586.214 278.633 585.953 278.742C585.693 278.846 585.458 279 585.25 279.203C585.042 279.411 584.865 279.667 584.719 279.969C584.578 280.266 584.479 280.609 584.422 281H588.969V280.93C588.969 280.669 588.919 280.391 588.82 280.094C588.721 279.792 588.583 279.531 588.406 279.312C588.229 279.094 588.005 278.917 587.734 278.781C587.469 278.646 587.151 278.578 586.781 278.578ZM598.383 277.391C598.648 277.391 598.924 277.409 599.211 277.445C599.503 277.482 599.721 277.531 599.867 277.594L599.672 279.008C599.391 278.945 599.122 278.901 598.867 278.875C598.617 278.844 598.354 278.828 598.078 278.828C597.724 278.828 597.404 278.872 597.117 278.961C596.831 279.044 596.581 279.169 596.367 279.336C596.174 279.482 596.005 279.661 595.859 279.875C595.719 280.083 595.602 280.318 595.508 280.578V286H594.055V277.547H595.43L595.492 278.68L595.5 278.891C595.844 278.427 596.255 278.062 596.734 277.797C597.219 277.526 597.768 277.391 598.383 277.391ZM602.68 277.547H607V284.75H609.758V286H602.68V284.75H605.555V278.805H602.68V277.547ZM605.367 275.328C605.367 275.203 605.385 275.086 605.422 274.977C605.464 274.867 605.526 274.773 605.609 274.695C605.677 274.628 605.763 274.576 605.867 274.539C605.977 274.497 606.099 274.477 606.234 274.477C606.37 274.477 606.49 274.497 606.594 274.539C606.698 274.576 606.784 274.628 606.852 274.695C606.935 274.768 606.997 274.859 607.039 274.969C607.081 275.078 607.102 275.198 607.102 275.328C607.102 275.562 607.029 275.758 606.883 275.914C606.737 276.07 606.521 276.148 606.234 276.148C605.943 276.148 605.724 276.07 605.578 275.914C605.438 275.758 605.367 275.562 605.367 275.328ZM615.797 286.156C615.203 286.156 614.656 286.055 614.156 285.852C613.661 285.648 613.237 285.365 612.883 285C612.529 284.635 612.253 284.203 612.055 283.703C611.857 283.203 611.758 282.659 611.758 282.07V281.742C611.758 281.06 611.867 280.451 612.086 279.914C612.305 279.372 612.596 278.914 612.961 278.539C613.32 278.169 613.729 277.885 614.188 277.688C614.651 277.49 615.125 277.391 615.609 277.391C616.219 277.391 616.75 277.497 617.203 277.711C617.661 277.919 618.042 278.208 618.344 278.578C618.646 278.953 618.87 279.393 619.016 279.898C619.167 280.404 619.242 280.951 619.242 281.539V282.188H613.203V282.242C613.24 282.654 613.32 283.016 613.445 283.328C613.576 283.641 613.753 283.917 613.977 284.156C614.206 284.411 614.482 284.612 614.805 284.758C615.128 284.904 615.484 284.977 615.875 284.977C616.391 284.977 616.849 284.872 617.25 284.664C617.651 284.456 617.984 284.18 618.25 283.836L619.133 284.523C618.852 284.951 618.43 285.331 617.867 285.664C617.31 285.992 616.62 286.156 615.797 286.156ZM615.609 278.578C615.318 278.578 615.042 278.633 614.781 278.742C614.521 278.846 614.286 279 614.078 279.203C613.87 279.411 613.693 279.667 613.547 279.969C613.406 280.266 613.307 280.609 613.25 281H617.797V280.93C617.797 280.669 617.747 280.391 617.648 280.094C617.549 279.792 617.411 279.531 617.234 279.312C617.057 279.094 616.833 278.917 616.562 278.781C616.297 278.646 615.979 278.578 615.609 278.578ZM621.672 286V277.547H622.969L623.07 278.797C623.195 278.62 623.331 278.458 623.477 278.312C623.628 278.161 623.786 278.031 623.953 277.922C624.203 277.755 624.474 277.628 624.766 277.539C625.062 277.445 625.375 277.396 625.703 277.391C626.146 277.391 626.547 277.453 626.906 277.578C627.271 277.703 627.581 277.898 627.836 278.164C628.091 278.43 628.286 278.768 628.422 279.18C628.562 279.586 628.633 280.07 628.633 280.633V286H627.188V280.664C627.188 280.289 627.146 279.971 627.062 279.711C626.979 279.451 626.857 279.24 626.695 279.078C626.529 278.917 626.326 278.799 626.086 278.727C625.852 278.654 625.581 278.617 625.273 278.617C625.008 278.617 624.76 278.656 624.531 278.734C624.302 278.807 624.091 278.909 623.898 279.039C623.742 279.154 623.596 279.286 623.461 279.438C623.331 279.589 623.216 279.755 623.117 279.938V286H621.672ZM634.883 284.984C635.143 284.984 635.396 284.943 635.641 284.859C635.891 284.776 636.112 284.659 636.305 284.508C636.497 284.362 636.651 284.19 636.766 283.992C636.885 283.789 636.948 283.57 636.953 283.336H638.32C638.315 283.711 638.216 284.07 638.023 284.414C637.836 284.753 637.583 285.049 637.266 285.305C636.948 285.565 636.583 285.773 636.172 285.93C635.76 286.081 635.331 286.156 634.883 286.156C634.242 286.156 633.682 286.042 633.203 285.812C632.724 285.583 632.326 285.273 632.008 284.883C631.685 284.497 631.443 284.052 631.281 283.547C631.12 283.036 631.039 282.5 631.039 281.938V281.609C631.039 281.052 631.12 280.518 631.281 280.008C631.443 279.497 631.685 279.047 632.008 278.656C632.326 278.271 632.724 277.964 633.203 277.734C633.682 277.505 634.242 277.391 634.883 277.391C635.383 277.391 635.841 277.471 636.258 277.633C636.68 277.789 637.044 278.003 637.352 278.273C637.654 278.549 637.891 278.875 638.062 279.25C638.234 279.625 638.32 280.026 638.32 280.453H636.953C636.948 280.198 636.891 279.958 636.781 279.734C636.677 279.505 636.534 279.305 636.352 279.133C636.169 278.961 635.951 278.826 635.695 278.727C635.445 278.628 635.174 278.578 634.883 278.578C634.435 278.578 634.057 278.669 633.75 278.852C633.448 279.029 633.203 279.26 633.016 279.547C632.828 279.839 632.693 280.164 632.609 280.523C632.531 280.883 632.492 281.245 632.492 281.609V281.938C632.492 282.307 632.531 282.674 632.609 283.039C632.693 283.398 632.828 283.721 633.016 284.008C633.198 284.299 633.44 284.536 633.742 284.719C634.049 284.896 634.43 284.984 634.883 284.984ZM644.625 286.156C644.031 286.156 643.484 286.055 642.984 285.852C642.49 285.648 642.065 285.365 641.711 285C641.357 284.635 641.081 284.203 640.883 283.703C640.685 283.203 640.586 282.659 640.586 282.07V281.742C640.586 281.06 640.695 280.451 640.914 279.914C641.133 279.372 641.424 278.914 641.789 278.539C642.148 278.169 642.557 277.885 643.016 277.688C643.479 277.49 643.953 277.391 644.438 277.391C645.047 277.391 645.578 277.497 646.031 277.711C646.49 277.919 646.87 278.208 647.172 278.578C647.474 278.953 647.698 279.393 647.844 279.898C647.995 280.404 648.07 280.951 648.07 281.539V282.188H642.031V282.242C642.068 282.654 642.148 283.016 642.273 283.328C642.404 283.641 642.581 283.917 642.805 284.156C643.034 284.411 643.31 284.612 643.633 284.758C643.956 284.904 644.312 284.977 644.703 284.977C645.219 284.977 645.677 284.872 646.078 284.664C646.479 284.456 646.812 284.18 647.078 283.836L647.961 284.523C647.68 284.951 647.258 285.331 646.695 285.664C646.138 285.992 645.448 286.156 644.625 286.156ZM644.438 278.578C644.146 278.578 643.87 278.633 643.609 278.742C643.349 278.846 643.115 279 642.906 279.203C642.698 279.411 642.521 279.667 642.375 279.969C642.234 280.266 642.135 280.609 642.078 281H646.625V280.93C646.625 280.669 646.576 280.391 646.477 280.094C646.378 279.792 646.24 279.531 646.062 279.312C645.885 279.094 645.661 278.917 645.391 278.781C645.125 278.646 644.807 278.578 644.438 278.578Z" fill="black" fill-opacity="0.6"/>
<path d="M847 207.5V156.5L805 192V240.5L825.5 258V223.5L847 207.5Z" fill="#1A1D20"/>
<path d="M847 294.5V345.5L805 310V261.5L825.5 244V278.5L847 294.5Z" fill="#1A1D20"/>
<path d="M304 209V158L346 193.5V242L325.5 259.5V225L304 209Z" fill="#1A1D20"/>
<path d="M304 295.5V346.5L346 311V262.5L325.5 245V279.5L304 295.5Z" fill="#1A1D20"/>
<path d="M594.5 110H551L557.5 122.5H588L594.5 110Z" fill="#1A1D20"/>
<path d="M596.5 388.5H553L559.5 376H590L596.5 388.5Z" fill="#1A1D20"/>
<path d="M55 33V144.5L87 170.5V405.5" stroke="#F8F8F8" stroke-width="2"/>
<path d="M1003.5 758.5V664.5L975 648V519" stroke="#F8F8F8" stroke-width="2"/>
<path d="M1043.5 73.5L1068.5 97V346L1030 393V443" stroke="#F8F8F8" stroke-width="2"/>
<path d="M159.5 716V645L180.5 630.5V553L159.5 532V471.5" stroke="#F8F8F8" stroke-width="2"/>
<rect x="84" y="403" width="6" height="6" fill="#F8F8F8"/>
<rect x="972" y="516" width="6" height="6" fill="#F8F8F8"/>
<rect x="703" y="579" width="6" height="6" fill="#F8F8F8"/>
<rect x="440" y="558" width="6" height="6" fill="#F8F8F8"/>
<rect x="1027" y="440" width="6" height="6" fill="#F8F8F8"/>
<rect x="156" y="469" width="6" height="6" fill="#F8F8F8"/>
<path d="M443 561.5V610.5L462.5 636H549.5" stroke="#F8F8F8" stroke-width="2"/>
<path d="M544 530.5H683L706 548V584.5" stroke="#F8F8F8" stroke-width="2"/>
</svg>
